%TF.GenerationSoftware,Altium Limited,Altium Designer,25.1.2 (22)*%
G04 Layer_Color=8388736*
%FSLAX25Y25*%
%MOIN*%
%TF.SameCoordinates,C6B27E67-7A8A-4C38-9DB9-D7D7B609FA95*%
%TF.FilePolarity,Negative*%
%TF.FileFunction,Soldermask,Top*%
%TF.Part,Single*%
G01*
G75*
%TA.AperFunction,SMDPad,CuDef*%
%ADD10R,0.05906X0.03937*%
%ADD11R,0.03937X0.05906*%
%TA.AperFunction,ComponentPad*%
%ADD19R,0.04921X0.04921*%
%ADD20C,0.04921*%
%ADD23R,0.08071X0.08071*%
%ADD24C,0.08071*%
%ADD27R,0.07874X0.07874*%
%ADD28C,0.07874*%
%ADD34R,0.06102X0.06102*%
%ADD35C,0.06102*%
%ADD48C,0.12611*%
%ADD49C,0.05918*%
%ADD50C,0.05524*%
%ADD51R,0.06706X0.06706*%
%ADD52C,0.06706*%
%ADD53C,0.06115*%
%ADD54R,0.06115X0.06115*%
%ADD55C,0.16548*%
%ADD56C,0.08477*%
%ADD57R,0.08477X0.08477*%
%ADD58C,0.06700*%
%ADD59R,0.06700X0.06700*%
%ADD60R,0.06115X0.06115*%
%TA.AperFunction,ViaPad*%
%ADD61C,0.32296*%
%ADD62C,0.05800*%
D10*
X240945Y47638D02*
D03*
Y60236D02*
D03*
X301969Y138189D02*
D03*
Y150787D02*
D03*
X279528Y147244D02*
D03*
Y159843D02*
D03*
D11*
X214173Y61811D02*
D03*
X226772D02*
D03*
X206693Y32283D02*
D03*
X194095D02*
D03*
X172835Y99213D02*
D03*
X160236D02*
D03*
X181102Y192913D02*
D03*
X168504D02*
D03*
D19*
X245153Y197000D02*
D03*
D20*
Y207000D02*
D03*
Y217000D02*
D03*
Y227000D02*
D03*
X213894D02*
D03*
Y217000D02*
D03*
Y207000D02*
D03*
Y197000D02*
D03*
D23*
X235394Y88126D02*
D03*
D24*
X225394D02*
D03*
X215394D02*
D03*
D27*
X278394Y47000D02*
D03*
D28*
Y37000D02*
D03*
Y27000D02*
D03*
D34*
X385827Y151339D02*
D03*
D35*
Y116378D02*
D03*
D48*
X125000Y243110D02*
D03*
X145866D02*
D03*
D49*
X238189Y248031D02*
D03*
X228189D02*
D03*
D50*
X167323D02*
D03*
X210630D02*
D03*
X102362Y183071D02*
D03*
Y139764D02*
D03*
X258740Y217000D02*
D03*
X302047D02*
D03*
D51*
X260394Y174500D02*
D03*
X193894Y77500D02*
D03*
D52*
X250394Y174500D02*
D03*
X240394D02*
D03*
X230394D02*
D03*
X220394D02*
D03*
X210394D02*
D03*
X200394D02*
D03*
X260394Y144500D02*
D03*
X250394D02*
D03*
X240394D02*
D03*
X230394D02*
D03*
X220394D02*
D03*
X210394D02*
D03*
X200394D02*
D03*
X163894Y47500D02*
D03*
X173894D02*
D03*
X183894D02*
D03*
X193894D02*
D03*
X163894Y77500D02*
D03*
X173894D02*
D03*
X183894D02*
D03*
D53*
X260394Y47783D02*
D03*
X180394Y143000D02*
D03*
Y133000D02*
D03*
X295610Y197000D02*
D03*
X167177Y207000D02*
D03*
D54*
X260394Y83217D02*
D03*
X180394Y123000D02*
D03*
D55*
X141732Y159449D02*
D03*
X129921Y78740D02*
D03*
X277894Y110500D02*
D03*
X338583Y161417D02*
D03*
X338894Y217000D02*
D03*
D56*
X122047Y149606D02*
D03*
X161417Y159449D02*
D03*
X110236Y68898D02*
D03*
X149606Y78740D02*
D03*
X258209Y110500D02*
D03*
X297579Y120343D02*
D03*
X358268Y171260D02*
D03*
X318898Y161417D02*
D03*
X358579Y226842D02*
D03*
X319209Y217000D02*
D03*
D57*
X122047Y169291D02*
D03*
X110236Y88583D02*
D03*
X297579Y100657D02*
D03*
X358268Y151575D02*
D03*
X358579Y207157D02*
D03*
D58*
X127394Y115500D02*
D03*
X122394Y125500D02*
D03*
D59*
X117394Y115500D02*
D03*
D60*
X260177Y197000D02*
D03*
X202610Y207000D02*
D03*
D61*
X89567Y234252D02*
D03*
X354331Y37000D02*
D03*
X110236Y35433D02*
D03*
X397638Y192913D02*
D03*
D62*
X133858Y133858D02*
D03*
X293701Y181890D02*
D03*
X190551Y193307D02*
D03*
X183858Y98819D02*
D03*
X160236Y110630D02*
D03*
X301969Y159843D02*
D03*
X235394Y130000D02*
D03*
X279528Y169291D02*
D03*
X220472Y32283D02*
D03*
%TF.MD5,78976f32d2e1650e168ce461b1bee83b*%
M02*
