%TF.GenerationSoftware,Altium Limited,Altium Designer,25.1.2 (22)*%
G04 Layer_Color=16711935*
%FSLAX25Y25*%
%MOIN*%
%TF.SameCoordinates,C6B27E67-7A8A-4C38-9DB9-D7D7B609FA95*%
%TF.FilePolarity,Positive*%
%TF.FileFunction,Other,Top_Assembly*%
%TF.Part,Single*%
G01*
G75*
%TA.AperFunction,NonConductor*%
%ADD40C,0.00787*%
G36*
X228588Y211996D02*
X228617D01*
X228654Y211993D01*
X228694Y211989D01*
X228734Y211985D01*
X228825Y211971D01*
X228923Y211949D01*
X229018Y211920D01*
X229109Y211880D01*
X229112D01*
X229120Y211873D01*
X229131Y211865D01*
X229145Y211858D01*
X229185Y211829D01*
X229233Y211789D01*
X229287Y211738D01*
X229338Y211680D01*
X229389Y211607D01*
X229429Y211527D01*
Y211523D01*
X229433Y211516D01*
X229436Y211501D01*
X229444Y211483D01*
X229451Y211461D01*
X229458Y211432D01*
X229469Y211399D01*
X229476Y211359D01*
X229484Y211316D01*
X229495Y211268D01*
X229502Y211217D01*
X229509Y211163D01*
X229516Y211101D01*
X229520Y211035D01*
X229524Y210966D01*
Y210894D01*
Y209437D01*
X229189D01*
Y210894D01*
Y210897D01*
Y210908D01*
Y210926D01*
Y210948D01*
X229185Y210974D01*
Y211006D01*
X229182Y211075D01*
X229174Y211156D01*
X229163Y211236D01*
X229149Y211312D01*
X229141Y211345D01*
X229131Y211378D01*
X229127Y211385D01*
X229120Y211403D01*
X229101Y211428D01*
X229080Y211465D01*
X229054Y211501D01*
X229018Y211541D01*
X228974Y211581D01*
X228923Y211614D01*
X228916Y211618D01*
X228898Y211629D01*
X228865Y211640D01*
X228821Y211654D01*
X228770Y211672D01*
X228705Y211683D01*
X228636Y211694D01*
X228559Y211698D01*
X228523D01*
X228501Y211694D01*
X228468D01*
X228435Y211691D01*
X228355Y211676D01*
X228268Y211658D01*
X228184Y211629D01*
X228104Y211589D01*
X228068Y211563D01*
X228035Y211534D01*
X228031Y211530D01*
X228028Y211527D01*
X228020Y211516D01*
X228009Y211501D01*
X227998Y211479D01*
X227984Y211458D01*
X227969Y211425D01*
X227955Y211392D01*
X227940Y211352D01*
X227929Y211305D01*
X227915Y211250D01*
X227904Y211192D01*
X227893Y211126D01*
X227886Y211057D01*
X227878Y210977D01*
Y210894D01*
Y209437D01*
X227543D01*
Y210894D01*
Y210897D01*
Y210912D01*
Y210930D01*
Y210955D01*
X227547Y210988D01*
Y211024D01*
X227551Y211068D01*
X227554Y211112D01*
X227565Y211210D01*
X227580Y211312D01*
X227602Y211410D01*
X227616Y211458D01*
X227631Y211501D01*
Y211505D01*
X227635Y211512D01*
X227642Y211523D01*
X227649Y211538D01*
X227671Y211578D01*
X227704Y211629D01*
X227747Y211687D01*
X227798Y211745D01*
X227864Y211807D01*
X227944Y211862D01*
X227947D01*
X227955Y211869D01*
X227966Y211873D01*
X227984Y211884D01*
X228006Y211894D01*
X228035Y211905D01*
X228064Y211916D01*
X228100Y211931D01*
X228140Y211945D01*
X228184Y211956D01*
X228231Y211967D01*
X228286Y211978D01*
X228341Y211985D01*
X228399Y211993D01*
X228530Y212000D01*
X228563D01*
X228588Y211996D01*
D02*
G37*
G36*
X226259Y209987D02*
X226262Y209991D01*
X226280Y210005D01*
X226302Y210027D01*
X226339Y210053D01*
X226379Y210085D01*
X226430Y210122D01*
X226488Y210162D01*
X226553Y210202D01*
X226557D01*
X226561Y210206D01*
X226583Y210220D01*
X226619Y210238D01*
X226663Y210260D01*
X226714Y210286D01*
X226768Y210311D01*
X226823Y210336D01*
X226877Y210358D01*
Y210060D01*
X226874D01*
X226866Y210053D01*
X226852Y210049D01*
X226834Y210038D01*
X226812Y210027D01*
X226786Y210013D01*
X226725Y209976D01*
X226652Y209936D01*
X226579Y209885D01*
X226502Y209827D01*
X226426Y209765D01*
X226422Y209761D01*
X226419Y209758D01*
X226408Y209747D01*
X226393Y209736D01*
X226361Y209700D01*
X226317Y209656D01*
X226273Y209605D01*
X226226Y209547D01*
X226186Y209488D01*
X226149Y209426D01*
X225949D01*
Y211956D01*
X226259D01*
Y209987D01*
D02*
G37*
G36*
X226167Y85996D02*
X226200D01*
X226240Y85993D01*
X226283Y85989D01*
X226331Y85982D01*
X226436Y85964D01*
X226549Y85938D01*
X226669Y85902D01*
X226786Y85851D01*
X226789Y85847D01*
X226800Y85843D01*
X226815Y85836D01*
X226837Y85822D01*
X226862Y85807D01*
X226891Y85789D01*
X226960Y85738D01*
X227033Y85680D01*
X227110Y85603D01*
X227186Y85519D01*
X227252Y85421D01*
X227255Y85418D01*
X227259Y85407D01*
X227266Y85392D01*
X227277Y85370D01*
X227288Y85345D01*
X227303Y85316D01*
X227317Y85279D01*
X227332Y85239D01*
X227346Y85192D01*
X227361Y85145D01*
X227386Y85039D01*
X227404Y84923D01*
X227412Y84861D01*
Y84762D01*
X227408Y84737D01*
Y84704D01*
X227404Y84671D01*
X227397Y84628D01*
X227390Y84584D01*
X227372Y84489D01*
X227343Y84380D01*
X227299Y84275D01*
X227273Y84220D01*
X227244Y84165D01*
X227241Y84162D01*
X227237Y84154D01*
X227226Y84140D01*
X227215Y84118D01*
X227197Y84096D01*
X227175Y84067D01*
X227124Y84005D01*
X227059Y83940D01*
X226978Y83867D01*
X226884Y83798D01*
X226778Y83740D01*
X226775D01*
X226764Y83732D01*
X226749Y83725D01*
X226727Y83718D01*
X226698Y83703D01*
X226665Y83692D01*
X226625Y83678D01*
X226582Y83663D01*
X226535Y83652D01*
X226483Y83638D01*
X226429Y83623D01*
X226371Y83612D01*
X226243Y83598D01*
X226109Y83590D01*
X226105D01*
X226094D01*
X226080D01*
X226058D01*
X226028Y83594D01*
X225996D01*
X225959Y83598D01*
X225923Y83601D01*
X225836Y83612D01*
X225741Y83630D01*
X225643Y83652D01*
X225548Y83685D01*
X225544D01*
X225537Y83689D01*
X225522Y83696D01*
X225508Y83703D01*
X225486Y83714D01*
X225461Y83725D01*
X225402Y83754D01*
X225333Y83794D01*
X225260Y83845D01*
X225188Y83903D01*
X225115Y83969D01*
Y83965D01*
X225108Y83958D01*
X225100Y83947D01*
X225089Y83929D01*
X225075Y83911D01*
X225060Y83885D01*
X225027Y83831D01*
X224988Y83765D01*
X224947Y83692D01*
X224915Y83616D01*
X224882Y83543D01*
X224653Y83641D01*
Y83645D01*
X224656Y83652D01*
X224663Y83667D01*
X224671Y83689D01*
X224682Y83714D01*
X224696Y83743D01*
X224711Y83776D01*
X224729Y83812D01*
X224773Y83892D01*
X224824Y83983D01*
X224889Y84082D01*
X224962Y84184D01*
Y84187D01*
X224955Y84195D01*
X224947Y84213D01*
X224937Y84231D01*
X224926Y84260D01*
X224911Y84289D01*
X224900Y84326D01*
X224886Y84366D01*
X224871Y84409D01*
X224856Y84457D01*
X224831Y84562D01*
X224813Y84679D01*
X224809Y84741D01*
X224805Y84802D01*
Y84835D01*
X224809Y84861D01*
Y84890D01*
X224813Y84926D01*
X224820Y84966D01*
X224827Y85010D01*
X224846Y85105D01*
X224875Y85210D01*
X224915Y85319D01*
X224940Y85370D01*
X224969Y85425D01*
X224973Y85429D01*
X224976Y85436D01*
X224988Y85450D01*
X224998Y85469D01*
X225017Y85494D01*
X225038Y85519D01*
X225089Y85581D01*
X225155Y85651D01*
X225235Y85720D01*
X225326Y85789D01*
X225431Y85851D01*
X225435D01*
X225446Y85858D01*
X225461Y85865D01*
X225483Y85873D01*
X225512Y85883D01*
X225544Y85898D01*
X225584Y85913D01*
X225628Y85924D01*
X225675Y85938D01*
X225726Y85953D01*
X225781Y85964D01*
X225843Y85978D01*
X225970Y85993D01*
X226105Y86000D01*
X226109D01*
X226123D01*
X226141D01*
X226167Y85996D01*
D02*
G37*
G36*
X226746Y83030D02*
X226753Y83022D01*
X226757Y83008D01*
X226767Y82990D01*
X226778Y82968D01*
X226793Y82942D01*
X226829Y82881D01*
X226869Y82808D01*
X226920Y82735D01*
X226978Y82658D01*
X227040Y82582D01*
X227044Y82578D01*
X227048Y82575D01*
X227059Y82564D01*
X227069Y82549D01*
X227106Y82516D01*
X227150Y82473D01*
X227201Y82429D01*
X227259Y82382D01*
X227317Y82342D01*
X227379Y82305D01*
Y82105D01*
X224849D01*
Y82415D01*
X226818D01*
X226815Y82418D01*
X226800Y82436D01*
X226778Y82458D01*
X226753Y82495D01*
X226720Y82535D01*
X226684Y82586D01*
X226644Y82644D01*
X226604Y82709D01*
Y82713D01*
X226600Y82717D01*
X226585Y82739D01*
X226567Y82775D01*
X226545Y82819D01*
X226520Y82870D01*
X226494Y82924D01*
X226469Y82979D01*
X226447Y83033D01*
X226746D01*
Y83030D01*
D02*
G37*
G36*
X284421Y38982D02*
X284450Y38978D01*
X284486Y38974D01*
X284526Y38967D01*
X284566Y38960D01*
X284661Y38934D01*
X284756Y38898D01*
X284803Y38876D01*
X284850Y38851D01*
X284894Y38818D01*
X284934Y38781D01*
X284938Y38778D01*
X284945Y38774D01*
X284952Y38760D01*
X284967Y38745D01*
X284985Y38727D01*
X285003Y38701D01*
X285021Y38676D01*
X285043Y38643D01*
X285080Y38574D01*
X285116Y38487D01*
X285131Y38443D01*
X285138Y38392D01*
X285145Y38341D01*
X285149Y38286D01*
Y38279D01*
Y38261D01*
X285145Y38232D01*
X285141Y38192D01*
X285134Y38148D01*
X285120Y38097D01*
X285105Y38043D01*
X285083Y37988D01*
X285080Y37981D01*
X285072Y37962D01*
X285058Y37933D01*
X285036Y37893D01*
X285007Y37850D01*
X284970Y37795D01*
X284927Y37740D01*
X284876Y37679D01*
X284868Y37671D01*
X284850Y37649D01*
X284832Y37631D01*
X284814Y37613D01*
X284792Y37591D01*
X284763Y37562D01*
X284734Y37533D01*
X284697Y37500D01*
X284661Y37464D01*
X284617Y37424D01*
X284570Y37384D01*
X284519Y37336D01*
X284461Y37289D01*
X284402Y37238D01*
X284399Y37234D01*
X284392Y37227D01*
X284377Y37216D01*
X284359Y37202D01*
X284337Y37180D01*
X284312Y37158D01*
X284253Y37111D01*
X284191Y37056D01*
X284133Y37001D01*
X284082Y36954D01*
X284060Y36936D01*
X284042Y36918D01*
X284038Y36914D01*
X284028Y36903D01*
X284013Y36889D01*
X283995Y36867D01*
X283977Y36841D01*
X283955Y36816D01*
X283911Y36754D01*
X285152D01*
Y36455D01*
X283482D01*
Y36459D01*
Y36474D01*
Y36496D01*
X283485Y36525D01*
X283489Y36557D01*
X283496Y36594D01*
X283503Y36630D01*
X283518Y36670D01*
Y36674D01*
X283522Y36678D01*
X283529Y36699D01*
X283543Y36732D01*
X283565Y36776D01*
X283594Y36827D01*
X283631Y36885D01*
X283671Y36943D01*
X283722Y37005D01*
Y37009D01*
X283729Y37012D01*
X283747Y37034D01*
X283780Y37067D01*
X283827Y37114D01*
X283882Y37169D01*
X283951Y37234D01*
X284035Y37307D01*
X284126Y37384D01*
X284130Y37387D01*
X284144Y37398D01*
X284166Y37416D01*
X284191Y37438D01*
X284224Y37467D01*
X284264Y37500D01*
X284304Y37536D01*
X284351Y37577D01*
X284442Y37664D01*
X284534Y37751D01*
X284577Y37795D01*
X284617Y37839D01*
X284654Y37879D01*
X284683Y37919D01*
Y37922D01*
X284690Y37926D01*
X284697Y37937D01*
X284705Y37951D01*
X284730Y37991D01*
X284759Y38039D01*
X284785Y38097D01*
X284810Y38159D01*
X284825Y38228D01*
X284832Y38294D01*
Y38297D01*
Y38301D01*
X284828Y38323D01*
X284825Y38359D01*
X284814Y38399D01*
X284799Y38450D01*
X284774Y38501D01*
X284741Y38552D01*
X284697Y38603D01*
X284690Y38610D01*
X284672Y38625D01*
X284646Y38643D01*
X284606Y38669D01*
X284555Y38690D01*
X284497Y38712D01*
X284428Y38727D01*
X284351Y38730D01*
X284330D01*
X284315Y38727D01*
X284272Y38723D01*
X284221Y38712D01*
X284166Y38698D01*
X284104Y38672D01*
X284046Y38639D01*
X283991Y38596D01*
X283984Y38589D01*
X283969Y38570D01*
X283947Y38541D01*
X283926Y38497D01*
X283900Y38447D01*
X283878Y38381D01*
X283864Y38308D01*
X283857Y38225D01*
X283540Y38257D01*
Y38261D01*
X283543Y38272D01*
Y38290D01*
X283547Y38315D01*
X283554Y38345D01*
X283562Y38377D01*
X283573Y38417D01*
X283583Y38457D01*
X283613Y38545D01*
X283656Y38632D01*
X283682Y38676D01*
X283715Y38719D01*
X283747Y38760D01*
X283784Y38796D01*
X283787Y38800D01*
X283795Y38803D01*
X283805Y38814D01*
X283824Y38825D01*
X283846Y38840D01*
X283871Y38854D01*
X283900Y38872D01*
X283937Y38891D01*
X283977Y38909D01*
X284020Y38927D01*
X284068Y38942D01*
X284119Y38956D01*
X284173Y38967D01*
X284231Y38978D01*
X284293Y38982D01*
X284359Y38985D01*
X284395D01*
X284421Y38982D01*
D02*
G37*
G36*
X282058Y39014D02*
X282091D01*
X282124Y39011D01*
X282168Y39003D01*
X282211Y38996D01*
X282306Y38978D01*
X282415Y38949D01*
X282521Y38905D01*
X282575Y38880D01*
X282630Y38851D01*
X282633Y38847D01*
X282641Y38843D01*
X282655Y38832D01*
X282677Y38821D01*
X282699Y38803D01*
X282728Y38781D01*
X282790Y38730D01*
X282856Y38665D01*
X282928Y38585D01*
X282997Y38490D01*
X283056Y38385D01*
Y38381D01*
X283063Y38370D01*
X283070Y38355D01*
X283078Y38334D01*
X283092Y38305D01*
X283103Y38272D01*
X283118Y38232D01*
X283132Y38188D01*
X283143Y38141D01*
X283158Y38090D01*
X283172Y38035D01*
X283183Y37977D01*
X283198Y37850D01*
X283205Y37715D01*
Y37711D01*
Y37700D01*
Y37686D01*
Y37664D01*
X283201Y37635D01*
Y37602D01*
X283198Y37566D01*
X283194Y37529D01*
X283183Y37442D01*
X283165Y37347D01*
X283143Y37249D01*
X283110Y37154D01*
Y37151D01*
X283107Y37143D01*
X283099Y37129D01*
X283092Y37114D01*
X283081Y37092D01*
X283070Y37067D01*
X283041Y37009D01*
X283001Y36940D01*
X282950Y36867D01*
X282892Y36794D01*
X282826Y36721D01*
X282830D01*
X282837Y36714D01*
X282848Y36707D01*
X282866Y36696D01*
X282885Y36681D01*
X282910Y36667D01*
X282965Y36634D01*
X283030Y36594D01*
X283103Y36554D01*
X283179Y36521D01*
X283252Y36488D01*
X283154Y36259D01*
X283150D01*
X283143Y36263D01*
X283128Y36270D01*
X283107Y36277D01*
X283081Y36288D01*
X283052Y36303D01*
X283019Y36317D01*
X282983Y36335D01*
X282903Y36379D01*
X282812Y36430D01*
X282714Y36496D01*
X282612Y36568D01*
X282608D01*
X282601Y36561D01*
X282582Y36554D01*
X282564Y36543D01*
X282535Y36532D01*
X282506Y36517D01*
X282470Y36506D01*
X282430Y36492D01*
X282386Y36477D01*
X282339Y36463D01*
X282233Y36437D01*
X282117Y36419D01*
X282055Y36415D01*
X281993Y36412D01*
X281960D01*
X281935Y36415D01*
X281906D01*
X281869Y36419D01*
X281829Y36426D01*
X281785Y36434D01*
X281691Y36452D01*
X281585Y36481D01*
X281476Y36521D01*
X281425Y36546D01*
X281370Y36576D01*
X281367Y36579D01*
X281360Y36583D01*
X281345Y36594D01*
X281327Y36605D01*
X281301Y36623D01*
X281276Y36645D01*
X281214Y36696D01*
X281145Y36761D01*
X281076Y36841D01*
X281006Y36932D01*
X280944Y37038D01*
Y37042D01*
X280937Y37052D01*
X280930Y37067D01*
X280923Y37089D01*
X280912Y37118D01*
X280897Y37151D01*
X280883Y37191D01*
X280872Y37234D01*
X280857Y37282D01*
X280843Y37333D01*
X280832Y37387D01*
X280817Y37449D01*
X280803Y37577D01*
X280795Y37711D01*
Y37715D01*
Y37729D01*
Y37748D01*
X280799Y37773D01*
Y37806D01*
X280803Y37846D01*
X280806Y37890D01*
X280814Y37937D01*
X280832Y38043D01*
X280857Y38155D01*
X280894Y38275D01*
X280944Y38392D01*
X280948Y38396D01*
X280952Y38407D01*
X280959Y38421D01*
X280974Y38443D01*
X280988Y38468D01*
X281006Y38497D01*
X281057Y38567D01*
X281116Y38639D01*
X281192Y38716D01*
X281276Y38792D01*
X281374Y38858D01*
X281378Y38862D01*
X281389Y38865D01*
X281403Y38872D01*
X281425Y38883D01*
X281451Y38894D01*
X281480Y38909D01*
X281516Y38923D01*
X281556Y38938D01*
X281603Y38952D01*
X281651Y38967D01*
X281756Y38993D01*
X281873Y39011D01*
X281935Y39018D01*
X282033D01*
X282058Y39014D01*
D02*
G37*
G36*
X243464Y52769D02*
X243460Y52740D01*
Y52707D01*
X243456Y52630D01*
X243445Y52550D01*
X243435Y52463D01*
X243416Y52383D01*
X243406Y52343D01*
X243395Y52310D01*
Y52306D01*
X243391Y52303D01*
X243380Y52281D01*
X243365Y52248D01*
X243340Y52208D01*
X243307Y52164D01*
X243264Y52117D01*
X243213Y52073D01*
X243154Y52030D01*
X243151D01*
X243147Y52026D01*
X243125Y52012D01*
X243089Y51997D01*
X243041Y51975D01*
X242987Y51957D01*
X242921Y51939D01*
X242852Y51928D01*
X242776Y51924D01*
X242772D01*
X242765D01*
X242750D01*
X242732Y51928D01*
X242707D01*
X242681Y51931D01*
X242619Y51946D01*
X242546Y51968D01*
X242470Y51997D01*
X242394Y52041D01*
X242357Y52070D01*
X242321Y52099D01*
X242317Y52103D01*
X242314Y52106D01*
X242303Y52117D01*
X242292Y52132D01*
X242277Y52150D01*
X242263Y52172D01*
X242244Y52201D01*
X242222Y52230D01*
X242204Y52266D01*
X242186Y52306D01*
X242164Y52350D01*
X242146Y52397D01*
X242131Y52452D01*
X242113Y52507D01*
X242102Y52568D01*
X242091Y52634D01*
X242088Y52627D01*
X242080Y52612D01*
X242066Y52590D01*
X242051Y52561D01*
X242011Y52496D01*
X241986Y52463D01*
X241964Y52434D01*
X241957Y52426D01*
X241939Y52408D01*
X241909Y52379D01*
X241873Y52343D01*
X241822Y52303D01*
X241768Y52255D01*
X241702Y52208D01*
X241629Y52157D01*
X240945Y51724D01*
Y52139D01*
X241469Y52470D01*
X241473D01*
X241480Y52477D01*
X241491Y52485D01*
X241505Y52496D01*
X241545Y52521D01*
X241596Y52554D01*
X241651Y52594D01*
X241709Y52634D01*
X241764Y52674D01*
X241815Y52710D01*
X241818Y52714D01*
X241833Y52725D01*
X241855Y52743D01*
X241880Y52769D01*
X241935Y52823D01*
X241960Y52852D01*
X241982Y52881D01*
X241986Y52885D01*
X241989Y52892D01*
X241997Y52907D01*
X242008Y52929D01*
X242019Y52951D01*
X242030Y52976D01*
X242048Y53034D01*
Y53038D01*
X242051Y53045D01*
Y53060D01*
X242055Y53078D01*
X242059Y53104D01*
Y53133D01*
X242062Y53173D01*
Y53602D01*
X240945D01*
Y53937D01*
X243464D01*
Y52769D01*
D02*
G37*
G36*
X242841Y51287D02*
X242849Y51280D01*
X242852Y51265D01*
X242863Y51247D01*
X242874Y51225D01*
X242889Y51200D01*
X242925Y51138D01*
X242965Y51065D01*
X243016Y50992D01*
X243074Y50916D01*
X243136Y50839D01*
X243140Y50836D01*
X243143Y50832D01*
X243154Y50821D01*
X243165Y50807D01*
X243202Y50774D01*
X243245Y50730D01*
X243296Y50687D01*
X243355Y50639D01*
X243413Y50599D01*
X243475Y50563D01*
Y50363D01*
X240945D01*
Y50672D01*
X242914D01*
X242910Y50676D01*
X242896Y50694D01*
X242874Y50716D01*
X242849Y50752D01*
X242816Y50792D01*
X242779Y50843D01*
X242739Y50901D01*
X242699Y50967D01*
Y50970D01*
X242696Y50974D01*
X242681Y50996D01*
X242663Y51032D01*
X242641Y51076D01*
X242616Y51127D01*
X242590Y51182D01*
X242565Y51236D01*
X242543Y51291D01*
X242841D01*
Y51287D01*
D02*
G37*
G36*
X243464Y48521D02*
Y48270D01*
X241833D01*
Y47927D01*
X241549D01*
Y48270D01*
X240945D01*
Y48579D01*
X241549D01*
Y49675D01*
X241833D01*
X243464Y48521D01*
D02*
G37*
G36*
X220473Y59292D02*
X219304D01*
X219275Y59296D01*
X219242D01*
X219166Y59299D01*
X219086Y59310D01*
X218998Y59321D01*
X218918Y59339D01*
X218878Y59350D01*
X218845Y59361D01*
X218842D01*
X218838Y59365D01*
X218816Y59376D01*
X218783Y59390D01*
X218743Y59416D01*
X218700Y59449D01*
X218653Y59492D01*
X218609Y59543D01*
X218565Y59602D01*
Y59605D01*
X218562Y59609D01*
X218547Y59631D01*
X218532Y59667D01*
X218511Y59714D01*
X218492Y59769D01*
X218474Y59834D01*
X218463Y59904D01*
X218460Y59980D01*
Y59984D01*
Y59991D01*
Y60006D01*
X218463Y60024D01*
Y60049D01*
X218467Y60075D01*
X218481Y60137D01*
X218503Y60210D01*
X218532Y60286D01*
X218576Y60362D01*
X218605Y60399D01*
X218634Y60435D01*
X218638Y60439D01*
X218642Y60442D01*
X218653Y60453D01*
X218667Y60464D01*
X218685Y60479D01*
X218707Y60493D01*
X218736Y60512D01*
X218765Y60533D01*
X218802Y60552D01*
X218842Y60570D01*
X218885Y60592D01*
X218933Y60610D01*
X218987Y60624D01*
X219042Y60643D01*
X219104Y60654D01*
X219169Y60664D01*
X219162Y60668D01*
X219147Y60675D01*
X219126Y60690D01*
X219096Y60704D01*
X219031Y60745D01*
X218998Y60770D01*
X218969Y60792D01*
X218962Y60799D01*
X218944Y60817D01*
X218915Y60847D01*
X218878Y60883D01*
X218838Y60934D01*
X218791Y60988D01*
X218743Y61054D01*
X218692Y61127D01*
X218259Y61811D01*
X218674D01*
X219005Y61287D01*
Y61283D01*
X219013Y61276D01*
X219020Y61265D01*
X219031Y61251D01*
X219057Y61211D01*
X219089Y61159D01*
X219129Y61105D01*
X219169Y61047D01*
X219209Y60992D01*
X219246Y60941D01*
X219249Y60938D01*
X219260Y60923D01*
X219279Y60901D01*
X219304Y60876D01*
X219359Y60821D01*
X219388Y60795D01*
X219417Y60774D01*
X219421Y60770D01*
X219428Y60766D01*
X219442Y60759D01*
X219464Y60748D01*
X219486Y60737D01*
X219512Y60726D01*
X219570Y60708D01*
X219573D01*
X219581Y60704D01*
X219595D01*
X219613Y60701D01*
X219639Y60697D01*
X219668D01*
X219708Y60694D01*
X220138D01*
Y61811D01*
X220473D01*
Y59292D01*
D02*
G37*
G36*
X215730Y61807D02*
Y61796D01*
Y61782D01*
X215726Y61760D01*
Y61731D01*
X215722Y61695D01*
X215719Y61655D01*
X215715Y61611D01*
X215708Y61560D01*
X215700Y61509D01*
X215689Y61447D01*
X215679Y61385D01*
X215668Y61320D01*
X215653Y61247D01*
X215617Y61098D01*
Y61094D01*
X215613Y61079D01*
X215606Y61058D01*
X215595Y61025D01*
X215584Y60988D01*
X215569Y60945D01*
X215555Y60894D01*
X215533Y60839D01*
X215511Y60777D01*
X215489Y60715D01*
X215435Y60577D01*
X215369Y60431D01*
X215296Y60286D01*
X215293Y60282D01*
X215285Y60268D01*
X215275Y60250D01*
X215260Y60220D01*
X215242Y60188D01*
X215216Y60148D01*
X215191Y60104D01*
X215162Y60057D01*
X215092Y59951D01*
X215020Y59842D01*
X214936Y59729D01*
X214849Y59623D01*
X216083D01*
Y59325D01*
X214452D01*
Y59569D01*
X214456Y59572D01*
X214463Y59580D01*
X214477Y59594D01*
X214492Y59616D01*
X214514Y59642D01*
X214543Y59671D01*
X214572Y59707D01*
X214605Y59751D01*
X214638Y59794D01*
X214678Y59846D01*
X214718Y59904D01*
X214758Y59962D01*
X214801Y60027D01*
X214845Y60097D01*
X214889Y60173D01*
X214932Y60250D01*
X214936Y60253D01*
X214943Y60268D01*
X214954Y60290D01*
X214972Y60322D01*
X214991Y60362D01*
X215013Y60406D01*
X215038Y60457D01*
X215063Y60515D01*
X215092Y60581D01*
X215125Y60646D01*
X215154Y60719D01*
X215184Y60795D01*
X215242Y60952D01*
X215296Y61119D01*
Y61123D01*
X215300Y61134D01*
X215304Y61152D01*
X215311Y61174D01*
X215318Y61203D01*
X215325Y61240D01*
X215336Y61280D01*
X215344Y61323D01*
X215355Y61374D01*
X215366Y61429D01*
X215384Y61545D01*
X215402Y61673D01*
X215413Y61811D01*
X215730D01*
Y61807D01*
D02*
G37*
G36*
X217207Y59842D02*
X217211Y59846D01*
X217229Y59860D01*
X217251Y59882D01*
X217287Y59907D01*
X217327Y59940D01*
X217378Y59977D01*
X217437Y60017D01*
X217502Y60057D01*
X217506D01*
X217510Y60060D01*
X217531Y60075D01*
X217568Y60093D01*
X217611Y60115D01*
X217662Y60140D01*
X217717Y60166D01*
X217772Y60191D01*
X217826Y60213D01*
Y59915D01*
X217823D01*
X217815Y59907D01*
X217801Y59904D01*
X217782Y59893D01*
X217761Y59882D01*
X217735Y59867D01*
X217673Y59831D01*
X217600Y59791D01*
X217528Y59740D01*
X217451Y59682D01*
X217375Y59620D01*
X217371Y59616D01*
X217368Y59613D01*
X217357Y59602D01*
X217342Y59591D01*
X217309Y59554D01*
X217266Y59511D01*
X217222Y59460D01*
X217175Y59401D01*
X217135Y59343D01*
X217098Y59281D01*
X216898D01*
Y61811D01*
X217207D01*
Y59842D01*
D02*
G37*
G36*
X201591Y34842D02*
X201624D01*
X201700Y34839D01*
X201781Y34828D01*
X201868Y34817D01*
X201948Y34799D01*
X201988Y34788D01*
X202021Y34777D01*
X202024D01*
X202028Y34773D01*
X202050Y34762D01*
X202083Y34748D01*
X202123Y34722D01*
X202166Y34689D01*
X202214Y34646D01*
X202257Y34595D01*
X202301Y34537D01*
Y34533D01*
X202305Y34529D01*
X202319Y34508D01*
X202334Y34471D01*
X202356Y34424D01*
X202374Y34369D01*
X202392Y34304D01*
X202403Y34234D01*
X202407Y34158D01*
Y34154D01*
Y34147D01*
Y34133D01*
X202403Y34114D01*
Y34089D01*
X202399Y34063D01*
X202385Y34001D01*
X202363Y33929D01*
X202334Y33852D01*
X202290Y33776D01*
X202261Y33739D01*
X202232Y33703D01*
X202228Y33699D01*
X202225Y33696D01*
X202214Y33685D01*
X202199Y33674D01*
X202181Y33659D01*
X202159Y33645D01*
X202130Y33627D01*
X202101Y33605D01*
X202064Y33586D01*
X202024Y33568D01*
X201981Y33547D01*
X201933Y33528D01*
X201879Y33514D01*
X201824Y33496D01*
X201762Y33485D01*
X201697Y33474D01*
X201704Y33470D01*
X201719Y33463D01*
X201741Y33448D01*
X201770Y33434D01*
X201835Y33394D01*
X201868Y33368D01*
X201897Y33346D01*
X201904Y33339D01*
X201922Y33321D01*
X201952Y33292D01*
X201988Y33255D01*
X202028Y33204D01*
X202075Y33150D01*
X202123Y33084D01*
X202174Y33011D01*
X202607Y32327D01*
X202192D01*
X201861Y32851D01*
Y32855D01*
X201853Y32862D01*
X201846Y32873D01*
X201835Y32888D01*
X201810Y32928D01*
X201777Y32979D01*
X201737Y33033D01*
X201697Y33092D01*
X201657Y33146D01*
X201620Y33197D01*
X201617Y33201D01*
X201606Y33215D01*
X201588Y33237D01*
X201562Y33263D01*
X201507Y33317D01*
X201478Y33343D01*
X201449Y33364D01*
X201446Y33368D01*
X201438Y33372D01*
X201424Y33379D01*
X201402Y33390D01*
X201380Y33401D01*
X201355Y33412D01*
X201296Y33430D01*
X201293D01*
X201285Y33434D01*
X201271D01*
X201253Y33437D01*
X201227Y33441D01*
X201198D01*
X201158Y33445D01*
X200729D01*
Y32327D01*
X200394D01*
Y34846D01*
X201562D01*
X201591Y34842D01*
D02*
G37*
G36*
X203677Y34853D02*
X203706Y34850D01*
X203739Y34846D01*
X203775Y34842D01*
X203812Y34831D01*
X203899Y34810D01*
X203986Y34777D01*
X204030Y34755D01*
X204074Y34729D01*
X204114Y34697D01*
X204154Y34664D01*
X204157Y34660D01*
X204161Y34657D01*
X204172Y34646D01*
X204187Y34631D01*
X204201Y34609D01*
X204219Y34587D01*
X204256Y34533D01*
X204292Y34464D01*
X204325Y34384D01*
X204350Y34293D01*
X204354Y34245D01*
X204358Y34194D01*
Y34191D01*
Y34187D01*
Y34165D01*
X204354Y34133D01*
X204347Y34093D01*
X204336Y34042D01*
X204318Y33991D01*
X204296Y33940D01*
X204263Y33889D01*
X204259Y33881D01*
X204245Y33867D01*
X204223Y33845D01*
X204194Y33816D01*
X204154Y33783D01*
X204106Y33750D01*
X204052Y33718D01*
X203986Y33689D01*
X203990D01*
X203997Y33685D01*
X204008Y33681D01*
X204023Y33674D01*
X204066Y33656D01*
X204117Y33630D01*
X204172Y33594D01*
X204230Y33554D01*
X204285Y33503D01*
X204336Y33445D01*
Y33441D01*
X204339Y33437D01*
X204354Y33415D01*
X204376Y33379D01*
X204398Y33332D01*
X204419Y33274D01*
X204441Y33204D01*
X204456Y33128D01*
X204460Y33044D01*
Y33040D01*
Y33030D01*
Y33011D01*
X204456Y32990D01*
X204452Y32964D01*
X204449Y32931D01*
X204441Y32895D01*
X204430Y32855D01*
X204405Y32771D01*
X204387Y32724D01*
X204361Y32680D01*
X204336Y32633D01*
X204307Y32589D01*
X204270Y32546D01*
X204230Y32502D01*
X204227Y32498D01*
X204219Y32491D01*
X204208Y32480D01*
X204190Y32469D01*
X204165Y32451D01*
X204139Y32433D01*
X204106Y32414D01*
X204070Y32393D01*
X204030Y32371D01*
X203983Y32353D01*
X203932Y32334D01*
X203881Y32316D01*
X203822Y32305D01*
X203761Y32294D01*
X203699Y32287D01*
X203630Y32283D01*
X203593D01*
X203568Y32287D01*
X203535Y32291D01*
X203499Y32294D01*
X203458Y32302D01*
X203415Y32313D01*
X203317Y32338D01*
X203266Y32356D01*
X203218Y32374D01*
X203167Y32400D01*
X203116Y32429D01*
X203069Y32462D01*
X203025Y32502D01*
X203022Y32506D01*
X203014Y32513D01*
X203004Y32524D01*
X202989Y32542D01*
X202974Y32564D01*
X202953Y32589D01*
X202934Y32618D01*
X202912Y32655D01*
X202891Y32691D01*
X202872Y32735D01*
X202836Y32826D01*
X202821Y32880D01*
X202811Y32935D01*
X202803Y32993D01*
X202800Y33051D01*
Y33055D01*
Y33062D01*
Y33077D01*
X202803Y33092D01*
Y33113D01*
X202807Y33139D01*
X202814Y33197D01*
X202829Y33263D01*
X202851Y33328D01*
X202883Y33397D01*
X202923Y33463D01*
Y33466D01*
X202931Y33470D01*
X202945Y33488D01*
X202974Y33517D01*
X203014Y33554D01*
X203065Y33590D01*
X203127Y33630D01*
X203197Y33663D01*
X203280Y33689D01*
X203276D01*
X203273Y33692D01*
X203262Y33696D01*
X203247Y33703D01*
X203215Y33718D01*
X203171Y33739D01*
X203124Y33768D01*
X203076Y33805D01*
X203033Y33845D01*
X202993Y33889D01*
X202989Y33896D01*
X202978Y33911D01*
X202963Y33940D01*
X202949Y33976D01*
X202931Y34023D01*
X202916Y34078D01*
X202905Y34140D01*
X202902Y34205D01*
Y34209D01*
Y34216D01*
Y34231D01*
X202905Y34253D01*
X202909Y34275D01*
X202912Y34304D01*
X202927Y34365D01*
X202949Y34438D01*
X202985Y34515D01*
X203007Y34555D01*
X203033Y34595D01*
X203065Y34631D01*
X203098Y34668D01*
X203102Y34671D01*
X203109Y34675D01*
X203120Y34686D01*
X203135Y34697D01*
X203153Y34711D01*
X203178Y34726D01*
X203207Y34744D01*
X203237Y34762D01*
X203273Y34780D01*
X203313Y34799D01*
X203357Y34813D01*
X203404Y34828D01*
X203506Y34850D01*
X203564Y34853D01*
X203622Y34857D01*
X203655D01*
X203677Y34853D01*
D02*
G37*
G36*
X388346Y132890D02*
X388342Y132825D01*
X388338Y132752D01*
X388331Y132679D01*
X388320Y132606D01*
X388309Y132544D01*
Y132541D01*
X388306Y132533D01*
Y132522D01*
X388298Y132508D01*
X388287Y132468D01*
X388269Y132417D01*
X388244Y132359D01*
X388211Y132297D01*
X388175Y132235D01*
X388127Y132177D01*
X388124Y132173D01*
X388120Y132169D01*
X388109Y132158D01*
X388098Y132144D01*
X388062Y132107D01*
X388011Y132064D01*
X387949Y132017D01*
X387876Y131965D01*
X387792Y131918D01*
X387698Y131878D01*
X387694D01*
X387687Y131875D01*
X387672Y131867D01*
X387650Y131864D01*
X387625Y131853D01*
X387596Y131845D01*
X387563Y131838D01*
X387523Y131827D01*
X387483Y131816D01*
X387436Y131809D01*
X387334Y131791D01*
X387221Y131780D01*
X387097Y131776D01*
X387093D01*
X387086D01*
X387068D01*
X387050D01*
X387024Y131780D01*
X386995D01*
X386926Y131783D01*
X386846Y131794D01*
X386762Y131805D01*
X386675Y131824D01*
X386588Y131845D01*
X386584D01*
X386577Y131849D01*
X386566Y131853D01*
X386551Y131856D01*
X386511Y131871D01*
X386460Y131893D01*
X386402Y131915D01*
X386344Y131944D01*
X386282Y131980D01*
X386224Y132017D01*
X386216Y132020D01*
X386198Y132035D01*
X386173Y132056D01*
X386140Y132086D01*
X386103Y132118D01*
X386067Y132158D01*
X386027Y132199D01*
X385994Y132246D01*
X385991Y132253D01*
X385980Y132268D01*
X385965Y132293D01*
X385947Y132329D01*
X385925Y132373D01*
X385907Y132424D01*
X385885Y132482D01*
X385867Y132548D01*
Y132555D01*
X385863Y132566D01*
X385859Y132577D01*
X385856Y132613D01*
X385849Y132664D01*
X385841Y132723D01*
X385834Y132792D01*
X385830Y132868D01*
X385827Y132952D01*
Y133858D01*
X388346D01*
Y132890D01*
D02*
G37*
G36*
X387723Y131205D02*
X387730Y131198D01*
X387734Y131183D01*
X387745Y131165D01*
X387756Y131143D01*
X387771Y131117D01*
X387807Y131055D01*
X387847Y130983D01*
X387898Y130910D01*
X387956Y130833D01*
X388018Y130757D01*
X388022Y130753D01*
X388025Y130750D01*
X388036Y130739D01*
X388047Y130724D01*
X388084Y130692D01*
X388127Y130648D01*
X388178Y130604D01*
X388236Y130557D01*
X388295Y130517D01*
X388356Y130480D01*
Y130280D01*
X385827D01*
Y130590D01*
X387796D01*
X387792Y130593D01*
X387778Y130611D01*
X387756Y130633D01*
X387730Y130670D01*
X387698Y130710D01*
X387661Y130761D01*
X387621Y130819D01*
X387581Y130884D01*
Y130888D01*
X387578Y130892D01*
X387563Y130914D01*
X387545Y130950D01*
X387523Y130994D01*
X387497Y131045D01*
X387472Y131099D01*
X387446Y131154D01*
X387425Y131208D01*
X387723D01*
Y131205D01*
D02*
G37*
G36*
X171846Y101782D02*
X171872D01*
X171901Y101779D01*
X171970Y101764D01*
X172046Y101746D01*
X172126Y101717D01*
X172206Y101673D01*
X172247Y101648D01*
X172283Y101619D01*
X172287Y101615D01*
X172290Y101611D01*
X172301Y101600D01*
X172312Y101590D01*
X172330Y101571D01*
X172345Y101549D01*
X172385Y101498D01*
X172425Y101433D01*
X172461Y101353D01*
X172494Y101262D01*
X172516Y101160D01*
X172206Y101135D01*
Y101138D01*
X172203Y101142D01*
X172199Y101164D01*
X172188Y101196D01*
X172174Y101236D01*
X172159Y101280D01*
X172137Y101324D01*
X172112Y101364D01*
X172086Y101397D01*
X172079Y101404D01*
X172064Y101418D01*
X172039Y101440D01*
X172003Y101466D01*
X171955Y101488D01*
X171904Y101509D01*
X171843Y101524D01*
X171777Y101531D01*
X171751D01*
X171722Y101528D01*
X171690Y101520D01*
X171646Y101509D01*
X171602Y101495D01*
X171559Y101477D01*
X171515Y101447D01*
X171508Y101444D01*
X171489Y101429D01*
X171464Y101404D01*
X171431Y101367D01*
X171395Y101324D01*
X171355Y101273D01*
X171318Y101207D01*
X171282Y101135D01*
Y101131D01*
X171278Y101124D01*
X171275Y101113D01*
X171267Y101098D01*
X171264Y101076D01*
X171256Y101051D01*
X171249Y101022D01*
X171242Y100985D01*
X171231Y100945D01*
X171224Y100901D01*
X171216Y100854D01*
X171213Y100803D01*
X171205Y100745D01*
X171202Y100687D01*
X171198Y100621D01*
Y100556D01*
X171202Y100559D01*
X171216Y100581D01*
X171242Y100610D01*
X171275Y100647D01*
X171311Y100690D01*
X171358Y100730D01*
X171409Y100770D01*
X171468Y100807D01*
X171471D01*
X171475Y100811D01*
X171497Y100821D01*
X171529Y100832D01*
X171573Y100850D01*
X171624Y100865D01*
X171682Y100876D01*
X171744Y100887D01*
X171810Y100891D01*
X171839D01*
X171861Y100887D01*
X171890Y100883D01*
X171919Y100880D01*
X171955Y100872D01*
X171992Y100862D01*
X172075Y100836D01*
X172119Y100818D01*
X172163Y100792D01*
X172206Y100767D01*
X172254Y100738D01*
X172298Y100701D01*
X172337Y100661D01*
X172341Y100658D01*
X172348Y100650D01*
X172359Y100639D01*
X172370Y100621D01*
X172389Y100596D01*
X172407Y100570D01*
X172425Y100538D01*
X172447Y100501D01*
X172469Y100461D01*
X172487Y100417D01*
X172505Y100366D01*
X172523Y100315D01*
X172534Y100261D01*
X172545Y100199D01*
X172552Y100137D01*
X172556Y100072D01*
Y100068D01*
Y100061D01*
Y100050D01*
Y100032D01*
X172552Y100010D01*
Y99988D01*
X172541Y99930D01*
X172530Y99861D01*
X172512Y99788D01*
X172487Y99708D01*
X172450Y99631D01*
Y99628D01*
X172447Y99624D01*
X172440Y99613D01*
X172432Y99598D01*
X172410Y99562D01*
X172378Y99515D01*
X172337Y99464D01*
X172290Y99413D01*
X172232Y99362D01*
X172170Y99318D01*
X172167D01*
X172163Y99314D01*
X172152Y99307D01*
X172137Y99304D01*
X172101Y99285D01*
X172054Y99267D01*
X171992Y99245D01*
X171923Y99231D01*
X171846Y99216D01*
X171762Y99212D01*
X171744D01*
X171726Y99216D01*
X171697D01*
X171664Y99220D01*
X171628Y99227D01*
X171584Y99238D01*
X171540Y99249D01*
X171489Y99264D01*
X171439Y99282D01*
X171388Y99304D01*
X171333Y99333D01*
X171282Y99365D01*
X171231Y99402D01*
X171180Y99445D01*
X171133Y99497D01*
X171129Y99500D01*
X171122Y99511D01*
X171111Y99526D01*
X171096Y99551D01*
X171074Y99584D01*
X171056Y99620D01*
X171034Y99668D01*
X171013Y99718D01*
X170987Y99780D01*
X170965Y99849D01*
X170947Y99926D01*
X170929Y100010D01*
X170911Y100104D01*
X170900Y100206D01*
X170893Y100315D01*
X170889Y100432D01*
Y100436D01*
Y100439D01*
Y100450D01*
Y100465D01*
X170893Y100501D01*
Y100552D01*
X170896Y100610D01*
X170903Y100680D01*
X170911Y100756D01*
X170922Y100840D01*
X170936Y100923D01*
X170954Y101014D01*
X170976Y101102D01*
X171002Y101189D01*
X171034Y101273D01*
X171071Y101353D01*
X171111Y101429D01*
X171158Y101495D01*
X171162Y101498D01*
X171169Y101506D01*
X171184Y101520D01*
X171202Y101542D01*
X171224Y101564D01*
X171253Y101586D01*
X171289Y101615D01*
X171326Y101640D01*
X171369Y101666D01*
X171417Y101695D01*
X171471Y101717D01*
X171526Y101742D01*
X171588Y101761D01*
X171653Y101775D01*
X171722Y101782D01*
X171795Y101786D01*
X171824D01*
X171846Y101782D01*
D02*
G37*
G36*
X170110Y99256D02*
X169800D01*
Y101225D01*
X169797Y101222D01*
X169779Y101207D01*
X169757Y101185D01*
X169720Y101160D01*
X169680Y101127D01*
X169629Y101091D01*
X169571Y101051D01*
X169506Y101011D01*
X169502D01*
X169498Y101007D01*
X169476Y100993D01*
X169440Y100974D01*
X169396Y100952D01*
X169345Y100927D01*
X169291Y100901D01*
X169236Y100876D01*
X169182Y100854D01*
Y101153D01*
X169185D01*
X169193Y101160D01*
X169207Y101164D01*
X169225Y101174D01*
X169247Y101185D01*
X169273Y101200D01*
X169334Y101236D01*
X169407Y101276D01*
X169480Y101327D01*
X169557Y101386D01*
X169633Y101447D01*
X169637Y101451D01*
X169640Y101455D01*
X169651Y101466D01*
X169666Y101477D01*
X169699Y101513D01*
X169742Y101557D01*
X169786Y101608D01*
X169833Y101666D01*
X169873Y101724D01*
X169910Y101786D01*
X170110D01*
Y99256D01*
D02*
G37*
G36*
X167733Y101771D02*
X167766D01*
X167842Y101768D01*
X167922Y101757D01*
X168010Y101746D01*
X168090Y101728D01*
X168130Y101717D01*
X168163Y101706D01*
X168166D01*
X168170Y101702D01*
X168192Y101691D01*
X168224Y101677D01*
X168264Y101651D01*
X168308Y101619D01*
X168355Y101575D01*
X168399Y101524D01*
X168443Y101466D01*
Y101462D01*
X168446Y101458D01*
X168461Y101437D01*
X168475Y101400D01*
X168497Y101353D01*
X168516Y101298D01*
X168534Y101233D01*
X168545Y101164D01*
X168548Y101087D01*
Y101084D01*
Y101076D01*
Y101062D01*
X168545Y101043D01*
Y101018D01*
X168541Y100993D01*
X168526Y100931D01*
X168505Y100858D01*
X168475Y100781D01*
X168432Y100705D01*
X168403Y100669D01*
X168374Y100632D01*
X168370Y100628D01*
X168366Y100625D01*
X168355Y100614D01*
X168341Y100603D01*
X168323Y100589D01*
X168301Y100574D01*
X168272Y100556D01*
X168243Y100534D01*
X168206Y100516D01*
X168166Y100497D01*
X168122Y100476D01*
X168075Y100457D01*
X168020Y100443D01*
X167966Y100425D01*
X167904Y100414D01*
X167839Y100403D01*
X167846Y100399D01*
X167860Y100392D01*
X167882Y100377D01*
X167911Y100363D01*
X167977Y100323D01*
X168010Y100297D01*
X168039Y100275D01*
X168046Y100268D01*
X168064Y100250D01*
X168093Y100221D01*
X168130Y100184D01*
X168170Y100134D01*
X168217Y100079D01*
X168264Y100013D01*
X168315Y99941D01*
X168748Y99256D01*
X168333D01*
X168002Y99780D01*
Y99784D01*
X167995Y99791D01*
X167988Y99802D01*
X167977Y99817D01*
X167951Y99857D01*
X167919Y99908D01*
X167878Y99962D01*
X167839Y100021D01*
X167798Y100075D01*
X167762Y100126D01*
X167758Y100130D01*
X167747Y100144D01*
X167729Y100166D01*
X167704Y100192D01*
X167649Y100246D01*
X167620Y100272D01*
X167591Y100294D01*
X167587Y100297D01*
X167580Y100301D01*
X167566Y100308D01*
X167544Y100319D01*
X167522Y100330D01*
X167496Y100341D01*
X167438Y100359D01*
X167435D01*
X167427Y100363D01*
X167413D01*
X167394Y100366D01*
X167369Y100370D01*
X167340D01*
X167300Y100374D01*
X166870D01*
Y99256D01*
X166535D01*
Y101775D01*
X167704D01*
X167733Y101771D01*
D02*
G37*
G36*
X304531Y143320D02*
X304527Y143291D01*
Y143258D01*
X304524Y143182D01*
X304513Y143101D01*
X304502Y143014D01*
X304484Y142934D01*
X304473Y142894D01*
X304462Y142861D01*
Y142858D01*
X304458Y142854D01*
X304447Y142832D01*
X304433Y142799D01*
X304407Y142759D01*
X304375Y142716D01*
X304331Y142668D01*
X304280Y142624D01*
X304222Y142581D01*
X304218D01*
X304214Y142577D01*
X304192Y142563D01*
X304156Y142548D01*
X304109Y142526D01*
X304054Y142508D01*
X303989Y142490D01*
X303920Y142479D01*
X303843Y142475D01*
X303839D01*
X303832D01*
X303818D01*
X303799Y142479D01*
X303774D01*
X303748Y142483D01*
X303686Y142497D01*
X303614Y142519D01*
X303537Y142548D01*
X303461Y142592D01*
X303425Y142621D01*
X303388Y142650D01*
X303384Y142654D01*
X303381Y142657D01*
X303370Y142668D01*
X303359Y142683D01*
X303344Y142701D01*
X303330Y142723D01*
X303312Y142752D01*
X303290Y142781D01*
X303272Y142817D01*
X303253Y142858D01*
X303232Y142901D01*
X303213Y142948D01*
X303199Y143003D01*
X303181Y143058D01*
X303170Y143120D01*
X303159Y143185D01*
X303155Y143178D01*
X303148Y143163D01*
X303133Y143141D01*
X303119Y143112D01*
X303079Y143047D01*
X303053Y143014D01*
X303031Y142985D01*
X303024Y142978D01*
X303006Y142959D01*
X302977Y142930D01*
X302940Y142894D01*
X302889Y142854D01*
X302835Y142806D01*
X302769Y142759D01*
X302696Y142708D01*
X302012Y142275D01*
Y142690D01*
X302536Y143021D01*
X302540D01*
X302547Y143029D01*
X302558Y143036D01*
X302573Y143047D01*
X302613Y143072D01*
X302664Y143105D01*
X302718Y143145D01*
X302777Y143185D01*
X302831Y143225D01*
X302882Y143262D01*
X302886Y143265D01*
X302900Y143276D01*
X302922Y143294D01*
X302948Y143320D01*
X303002Y143374D01*
X303028Y143403D01*
X303049Y143433D01*
X303053Y143436D01*
X303057Y143444D01*
X303064Y143458D01*
X303075Y143480D01*
X303086Y143502D01*
X303097Y143527D01*
X303115Y143586D01*
Y143589D01*
X303119Y143596D01*
Y143611D01*
X303122Y143629D01*
X303126Y143655D01*
Y143684D01*
X303130Y143724D01*
Y144153D01*
X302012D01*
Y144488D01*
X304531D01*
Y143320D01*
D02*
G37*
G36*
X303909Y141838D02*
X303916Y141831D01*
X303920Y141816D01*
X303930Y141798D01*
X303941Y141776D01*
X303956Y141751D01*
X303992Y141689D01*
X304032Y141616D01*
X304083Y141543D01*
X304141Y141467D01*
X304203Y141391D01*
X304207Y141387D01*
X304211Y141383D01*
X304222Y141372D01*
X304233Y141358D01*
X304269Y141325D01*
X304313Y141281D01*
X304364Y141238D01*
X304422Y141190D01*
X304480Y141150D01*
X304542Y141114D01*
Y140914D01*
X302012D01*
Y141223D01*
X303981D01*
X303978Y141227D01*
X303963Y141245D01*
X303941Y141267D01*
X303916Y141303D01*
X303883Y141343D01*
X303847Y141394D01*
X303807Y141453D01*
X303767Y141518D01*
Y141522D01*
X303763Y141525D01*
X303748Y141547D01*
X303730Y141584D01*
X303708Y141627D01*
X303683Y141678D01*
X303657Y141733D01*
X303632Y141787D01*
X303610Y141842D01*
X303909D01*
Y141838D01*
D02*
G37*
G36*
X302696Y139796D02*
X302693D01*
X302685D01*
X302675Y139793D01*
X302656Y139789D01*
X302616Y139778D01*
X302562Y139763D01*
X302507Y139742D01*
X302445Y139713D01*
X302391Y139676D01*
X302340Y139632D01*
X302336Y139625D01*
X302322Y139611D01*
X302303Y139582D01*
X302281Y139541D01*
X302260Y139498D01*
X302241Y139443D01*
X302227Y139381D01*
X302223Y139312D01*
Y139290D01*
X302227Y139276D01*
X302231Y139232D01*
X302245Y139181D01*
X302263Y139119D01*
X302292Y139057D01*
X302336Y138992D01*
X302362Y138963D01*
X302391Y138934D01*
X302394Y138930D01*
X302398Y138926D01*
X302409Y138919D01*
X302420Y138908D01*
X302460Y138883D01*
X302511Y138854D01*
X302573Y138828D01*
X302649Y138803D01*
X302740Y138784D01*
X302787Y138777D01*
X302838D01*
X302842D01*
X302849D01*
X302864D01*
X302882Y138781D01*
X302904D01*
X302929Y138784D01*
X302988Y138795D01*
X303057Y138813D01*
X303126Y138839D01*
X303191Y138875D01*
X303253Y138926D01*
X303257D01*
X303261Y138934D01*
X303279Y138952D01*
X303304Y138985D01*
X303333Y139028D01*
X303359Y139086D01*
X303384Y139152D01*
X303403Y139228D01*
X303410Y139272D01*
Y139341D01*
X303406Y139370D01*
X303403Y139407D01*
X303392Y139451D01*
X303381Y139494D01*
X303363Y139541D01*
X303341Y139589D01*
X303337Y139592D01*
X303330Y139607D01*
X303312Y139629D01*
X303293Y139658D01*
X303268Y139687D01*
X303235Y139716D01*
X303202Y139749D01*
X303162Y139774D01*
X303202Y140066D01*
X304498Y139822D01*
Y138570D01*
X304203D01*
Y139578D01*
X303523Y139713D01*
X303526Y139709D01*
X303530Y139702D01*
X303537Y139691D01*
X303548Y139673D01*
X303559Y139651D01*
X303574Y139625D01*
X303603Y139567D01*
X303632Y139494D01*
X303657Y139414D01*
X303676Y139327D01*
X303683Y139283D01*
Y139203D01*
X303679Y139181D01*
X303676Y139152D01*
X303672Y139119D01*
X303665Y139083D01*
X303654Y139043D01*
X303628Y138955D01*
X303610Y138908D01*
X303585Y138861D01*
X303559Y138813D01*
X303530Y138766D01*
X303494Y138723D01*
X303454Y138679D01*
X303450Y138675D01*
X303443Y138668D01*
X303432Y138657D01*
X303414Y138642D01*
X303388Y138624D01*
X303363Y138606D01*
X303330Y138584D01*
X303293Y138562D01*
X303253Y138544D01*
X303210Y138522D01*
X303159Y138504D01*
X303108Y138486D01*
X303053Y138471D01*
X302991Y138460D01*
X302929Y138453D01*
X302864Y138450D01*
X302860D01*
X302849D01*
X302831D01*
X302806Y138453D01*
X302777Y138457D01*
X302744Y138460D01*
X302704Y138468D01*
X302664Y138475D01*
X302569Y138497D01*
X302471Y138533D01*
X302420Y138555D01*
X302373Y138584D01*
X302322Y138613D01*
X302274Y138650D01*
X302271Y138653D01*
X302260Y138661D01*
X302245Y138675D01*
X302227Y138693D01*
X302205Y138719D01*
X302176Y138748D01*
X302151Y138784D01*
X302121Y138824D01*
X302092Y138868D01*
X302067Y138919D01*
X302041Y138974D01*
X302016Y139032D01*
X301998Y139094D01*
X301983Y139163D01*
X301972Y139236D01*
X301969Y139312D01*
Y139345D01*
X301972Y139370D01*
X301976Y139400D01*
X301979Y139432D01*
X301983Y139472D01*
X301994Y139512D01*
X302016Y139603D01*
X302048Y139694D01*
X302070Y139742D01*
X302096Y139789D01*
X302125Y139833D01*
X302158Y139876D01*
X302161Y139880D01*
X302165Y139887D01*
X302180Y139895D01*
X302194Y139909D01*
X302212Y139927D01*
X302234Y139945D01*
X302263Y139967D01*
X302296Y139986D01*
X302329Y140007D01*
X302369Y140029D01*
X302456Y140069D01*
X302558Y140102D01*
X302613Y140113D01*
X302671Y140120D01*
X302696Y139796D01*
D02*
G37*
G36*
X282090Y152375D02*
X282086Y152346D01*
Y152313D01*
X282083Y152237D01*
X282072Y152156D01*
X282061Y152069D01*
X282043Y151989D01*
X282032Y151949D01*
X282021Y151916D01*
Y151913D01*
X282017Y151909D01*
X282006Y151887D01*
X281992Y151854D01*
X281966Y151814D01*
X281934Y151771D01*
X281890Y151723D01*
X281839Y151680D01*
X281781Y151636D01*
X281777D01*
X281773Y151632D01*
X281752Y151618D01*
X281715Y151603D01*
X281668Y151581D01*
X281613Y151563D01*
X281548Y151545D01*
X281479Y151534D01*
X281402Y151530D01*
X281399D01*
X281391D01*
X281377D01*
X281358Y151534D01*
X281333D01*
X281308Y151538D01*
X281246Y151552D01*
X281173Y151574D01*
X281096Y151603D01*
X281020Y151647D01*
X280983Y151676D01*
X280947Y151705D01*
X280943Y151709D01*
X280940Y151712D01*
X280929Y151723D01*
X280918Y151738D01*
X280903Y151756D01*
X280889Y151778D01*
X280871Y151807D01*
X280849Y151836D01*
X280831Y151873D01*
X280812Y151913D01*
X280791Y151956D01*
X280772Y152004D01*
X280758Y152058D01*
X280740Y152113D01*
X280729Y152175D01*
X280718Y152240D01*
X280714Y152233D01*
X280707Y152218D01*
X280692Y152197D01*
X280678Y152167D01*
X280638Y152102D01*
X280612Y152069D01*
X280590Y152040D01*
X280583Y152033D01*
X280565Y152015D01*
X280536Y151985D01*
X280499Y151949D01*
X280448Y151909D01*
X280394Y151862D01*
X280328Y151814D01*
X280256Y151763D01*
X279571Y151330D01*
Y151745D01*
X280095Y152076D01*
X280099D01*
X280106Y152084D01*
X280117Y152091D01*
X280132Y152102D01*
X280172Y152127D01*
X280223Y152160D01*
X280277Y152200D01*
X280336Y152240D01*
X280390Y152280D01*
X280441Y152317D01*
X280445Y152320D01*
X280459Y152331D01*
X280481Y152349D01*
X280507Y152375D01*
X280561Y152429D01*
X280587Y152459D01*
X280609Y152488D01*
X280612Y152491D01*
X280616Y152499D01*
X280623Y152513D01*
X280634Y152535D01*
X280645Y152557D01*
X280656Y152582D01*
X280674Y152641D01*
Y152644D01*
X280678Y152652D01*
Y152666D01*
X280681Y152684D01*
X280685Y152710D01*
Y152739D01*
X280689Y152779D01*
Y153208D01*
X279571D01*
Y153543D01*
X282090D01*
Y152375D01*
D02*
G37*
G36*
X280816Y151145D02*
X280867D01*
X280925Y151141D01*
X280994Y151134D01*
X281071Y151126D01*
X281155Y151116D01*
X281238Y151101D01*
X281329Y151083D01*
X281417Y151061D01*
X281504Y151035D01*
X281588Y151003D01*
X281668Y150966D01*
X281744Y150926D01*
X281810Y150879D01*
X281813Y150875D01*
X281821Y150868D01*
X281835Y150853D01*
X281857Y150835D01*
X281879Y150813D01*
X281901Y150784D01*
X281930Y150748D01*
X281955Y150711D01*
X281981Y150668D01*
X282010Y150620D01*
X282032Y150566D01*
X282057Y150511D01*
X282076Y150449D01*
X282090Y150384D01*
X282097Y150315D01*
X282101Y150242D01*
Y150213D01*
X282097Y150191D01*
Y150165D01*
X282094Y150136D01*
X282079Y150067D01*
X282061Y149991D01*
X282032Y149911D01*
X281988Y149830D01*
X281963Y149791D01*
X281934Y149754D01*
X281930Y149750D01*
X281926Y149747D01*
X281915Y149736D01*
X281904Y149725D01*
X281886Y149707D01*
X281864Y149692D01*
X281813Y149652D01*
X281748Y149612D01*
X281668Y149576D01*
X281577Y149543D01*
X281475Y149521D01*
X281449Y149830D01*
X281453D01*
X281457Y149834D01*
X281479Y149838D01*
X281511Y149849D01*
X281551Y149863D01*
X281595Y149878D01*
X281639Y149900D01*
X281679Y149925D01*
X281712Y149951D01*
X281719Y149958D01*
X281733Y149972D01*
X281755Y149998D01*
X281781Y150034D01*
X281803Y150082D01*
X281824Y150133D01*
X281839Y150195D01*
X281846Y150260D01*
Y150285D01*
X281843Y150315D01*
X281835Y150347D01*
X281824Y150391D01*
X281810Y150435D01*
X281792Y150478D01*
X281763Y150522D01*
X281759Y150529D01*
X281744Y150548D01*
X281719Y150573D01*
X281682Y150606D01*
X281639Y150642D01*
X281588Y150682D01*
X281522Y150719D01*
X281449Y150755D01*
X281446D01*
X281438Y150759D01*
X281428Y150762D01*
X281413Y150770D01*
X281391Y150773D01*
X281366Y150781D01*
X281337Y150788D01*
X281300Y150795D01*
X281260Y150806D01*
X281217Y150813D01*
X281169Y150821D01*
X281118Y150824D01*
X281060Y150831D01*
X281002Y150835D01*
X280936Y150839D01*
X280871D01*
X280874Y150835D01*
X280896Y150821D01*
X280925Y150795D01*
X280962Y150762D01*
X281005Y150726D01*
X281045Y150679D01*
X281085Y150628D01*
X281122Y150569D01*
Y150566D01*
X281125Y150562D01*
X281136Y150540D01*
X281147Y150508D01*
X281166Y150464D01*
X281180Y150413D01*
X281191Y150355D01*
X281202Y150293D01*
X281206Y150227D01*
Y150198D01*
X281202Y150176D01*
X281198Y150147D01*
X281195Y150118D01*
X281187Y150082D01*
X281176Y150045D01*
X281151Y149962D01*
X281133Y149918D01*
X281107Y149874D01*
X281082Y149830D01*
X281053Y149783D01*
X281016Y149740D01*
X280976Y149699D01*
X280973Y149696D01*
X280965Y149689D01*
X280954Y149678D01*
X280936Y149667D01*
X280911Y149649D01*
X280885Y149630D01*
X280853Y149612D01*
X280816Y149590D01*
X280776Y149568D01*
X280732Y149550D01*
X280681Y149532D01*
X280630Y149514D01*
X280576Y149503D01*
X280514Y149492D01*
X280452Y149485D01*
X280387Y149481D01*
X280383D01*
X280376D01*
X280365D01*
X280346D01*
X280325Y149485D01*
X280303D01*
X280245Y149496D01*
X280175Y149507D01*
X280103Y149525D01*
X280023Y149550D01*
X279946Y149587D01*
X279942D01*
X279939Y149590D01*
X279928Y149598D01*
X279913Y149605D01*
X279877Y149627D01*
X279830Y149660D01*
X279779Y149699D01*
X279728Y149747D01*
X279677Y149805D01*
X279633Y149867D01*
Y149871D01*
X279629Y149874D01*
X279622Y149885D01*
X279619Y149900D01*
X279600Y149936D01*
X279582Y149983D01*
X279560Y150045D01*
X279546Y150115D01*
X279531Y150191D01*
X279527Y150275D01*
Y150293D01*
X279531Y150311D01*
Y150340D01*
X279535Y150373D01*
X279542Y150409D01*
X279553Y150453D01*
X279564Y150497D01*
X279578Y150548D01*
X279597Y150599D01*
X279619Y150649D01*
X279648Y150704D01*
X279680Y150755D01*
X279717Y150806D01*
X279761Y150857D01*
X279811Y150904D01*
X279815Y150908D01*
X279826Y150915D01*
X279841Y150926D01*
X279866Y150941D01*
X279899Y150963D01*
X279935Y150981D01*
X279982Y151003D01*
X280033Y151024D01*
X280095Y151050D01*
X280165Y151072D01*
X280241Y151090D01*
X280325Y151108D01*
X280419Y151126D01*
X280521Y151137D01*
X280630Y151145D01*
X280747Y151148D01*
X280751D01*
X280754D01*
X280765D01*
X280780D01*
X280816Y151145D01*
D02*
G37*
G36*
X178512Y193801D02*
X178854D01*
Y193518D01*
X178512D01*
Y192913D01*
X178203D01*
Y193518D01*
X177107D01*
Y193801D01*
X178261Y195432D01*
X178512D01*
Y193801D01*
D02*
G37*
G36*
X176001Y195429D02*
X176033D01*
X176110Y195425D01*
X176190Y195414D01*
X176277Y195403D01*
X176357Y195385D01*
X176397Y195374D01*
X176430Y195363D01*
X176434D01*
X176437Y195359D01*
X176459Y195349D01*
X176492Y195334D01*
X176532Y195308D01*
X176576Y195276D01*
X176623Y195232D01*
X176667Y195181D01*
X176710Y195123D01*
Y195119D01*
X176714Y195115D01*
X176729Y195094D01*
X176743Y195057D01*
X176765Y195010D01*
X176783Y194955D01*
X176802Y194890D01*
X176812Y194821D01*
X176816Y194744D01*
Y194741D01*
Y194733D01*
Y194719D01*
X176812Y194701D01*
Y194675D01*
X176809Y194650D01*
X176794Y194588D01*
X176772Y194515D01*
X176743Y194439D01*
X176699Y194362D01*
X176670Y194326D01*
X176641Y194289D01*
X176638Y194286D01*
X176634Y194282D01*
X176623Y194271D01*
X176609Y194260D01*
X176590Y194246D01*
X176568Y194231D01*
X176539Y194213D01*
X176510Y194191D01*
X176474Y194173D01*
X176434Y194155D01*
X176390Y194133D01*
X176343Y194114D01*
X176288Y194100D01*
X176234Y194082D01*
X176172Y194071D01*
X176106Y194060D01*
X176113Y194056D01*
X176128Y194049D01*
X176150Y194035D01*
X176179Y194020D01*
X176244Y193980D01*
X176277Y193954D01*
X176306Y193932D01*
X176314Y193925D01*
X176332Y193907D01*
X176361Y193878D01*
X176397Y193842D01*
X176437Y193791D01*
X176485Y193736D01*
X176532Y193670D01*
X176583Y193598D01*
X177016Y192913D01*
X176601D01*
X176270Y193438D01*
Y193441D01*
X176263Y193448D01*
X176256Y193459D01*
X176244Y193474D01*
X176219Y193514D01*
X176186Y193565D01*
X176146Y193620D01*
X176106Y193678D01*
X176066Y193732D01*
X176030Y193783D01*
X176026Y193787D01*
X176015Y193801D01*
X175997Y193823D01*
X175971Y193849D01*
X175917Y193903D01*
X175888Y193929D01*
X175859Y193951D01*
X175855Y193954D01*
X175848Y193958D01*
X175833Y193965D01*
X175811Y193976D01*
X175789Y193987D01*
X175764Y193998D01*
X175706Y194016D01*
X175702D01*
X175695Y194020D01*
X175680D01*
X175662Y194024D01*
X175637Y194027D01*
X175608D01*
X175567Y194031D01*
X175138D01*
Y192913D01*
X174803D01*
Y195432D01*
X175971D01*
X176001Y195429D01*
D02*
G37*
%LPC*%
G36*
X226105Y85658D02*
X226098D01*
X226083D01*
X226058D01*
X226025Y85654D01*
X225985Y85651D01*
X225938Y85643D01*
X225883Y85636D01*
X225828Y85629D01*
X225705Y85600D01*
X225643Y85581D01*
X225581Y85556D01*
X225519Y85530D01*
X225461Y85498D01*
X225402Y85461D01*
X225352Y85418D01*
X225348Y85414D01*
X225341Y85407D01*
X225326Y85392D01*
X225311Y85374D01*
X225290Y85348D01*
X225268Y85319D01*
X225246Y85287D01*
X225220Y85246D01*
X225195Y85207D01*
X225173Y85159D01*
X225151Y85108D01*
X225129Y85054D01*
X225115Y84992D01*
X225100Y84930D01*
X225093Y84864D01*
X225089Y84795D01*
Y84762D01*
X225093Y84730D01*
X225097Y84686D01*
X225104Y84631D01*
X225118Y84577D01*
X225133Y84515D01*
X225155Y84457D01*
X225159Y84464D01*
X225173Y84482D01*
X225191Y84515D01*
X225213Y84555D01*
X225235Y84606D01*
X225260Y84661D01*
X225282Y84722D01*
X225301Y84788D01*
X225541Y84704D01*
Y84701D01*
X225537Y84690D01*
X225534Y84675D01*
X225526Y84657D01*
X225519Y84631D01*
X225508Y84602D01*
X225483Y84537D01*
X225446Y84460D01*
X225406Y84380D01*
X225359Y84304D01*
X225301Y84227D01*
X225304Y84224D01*
X225311Y84213D01*
X225330Y84198D01*
X225352Y84180D01*
X225381Y84158D01*
X225413Y84133D01*
X225453Y84107D01*
X225501Y84078D01*
X225555Y84053D01*
X225617Y84027D01*
X225683Y84002D01*
X225752Y83980D01*
X225832Y83958D01*
X225916Y83943D01*
X226007Y83936D01*
X226105Y83933D01*
X226109D01*
X226119D01*
X226134D01*
X226156D01*
X226185Y83936D01*
X226214D01*
X226251Y83940D01*
X226287Y83947D01*
X226371Y83958D01*
X226462Y83976D01*
X226553Y84002D01*
X226640Y84038D01*
X226644D01*
X226651Y84042D01*
X226662Y84049D01*
X226676Y84056D01*
X226720Y84082D01*
X226771Y84114D01*
X226829Y84158D01*
X226887Y84213D01*
X226946Y84275D01*
X226997Y84344D01*
Y84347D01*
X227004Y84351D01*
X227008Y84362D01*
X227019Y84380D01*
X227026Y84398D01*
X227037Y84420D01*
X227062Y84475D01*
X227084Y84540D01*
X227106Y84617D01*
X227120Y84704D01*
X227124Y84795D01*
Y84832D01*
X227120Y84857D01*
X227117Y84890D01*
X227110Y84926D01*
X227102Y84966D01*
X227091Y85010D01*
X227077Y85061D01*
X227062Y85108D01*
X227040Y85159D01*
X227015Y85214D01*
X226986Y85265D01*
X226949Y85316D01*
X226913Y85367D01*
X226866Y85414D01*
X226862Y85418D01*
X226855Y85425D01*
X226840Y85436D01*
X226818Y85450D01*
X226793Y85472D01*
X226760Y85490D01*
X226720Y85512D01*
X226676Y85534D01*
X226625Y85560D01*
X226567Y85581D01*
X226505Y85600D01*
X226436Y85618D01*
X226363Y85636D01*
X226283Y85647D01*
X226196Y85654D01*
X226105Y85658D01*
D02*
G37*
G36*
X282000Y38730D02*
X281964D01*
X281938Y38727D01*
X281906Y38723D01*
X281869Y38716D01*
X281829Y38709D01*
X281785Y38698D01*
X281734Y38683D01*
X281687Y38669D01*
X281636Y38647D01*
X281581Y38621D01*
X281530Y38592D01*
X281480Y38556D01*
X281429Y38519D01*
X281381Y38472D01*
X281378Y38468D01*
X281370Y38461D01*
X281360Y38447D01*
X281345Y38425D01*
X281323Y38399D01*
X281305Y38366D01*
X281283Y38326D01*
X281261Y38283D01*
X281236Y38232D01*
X281214Y38173D01*
X281196Y38112D01*
X281177Y38043D01*
X281159Y37970D01*
X281148Y37890D01*
X281141Y37802D01*
X281137Y37711D01*
Y37704D01*
Y37689D01*
Y37664D01*
X281141Y37631D01*
X281145Y37591D01*
X281152Y37544D01*
X281159Y37489D01*
X281167Y37435D01*
X281196Y37311D01*
X281214Y37249D01*
X281239Y37187D01*
X281265Y37125D01*
X281298Y37067D01*
X281334Y37009D01*
X281378Y36958D01*
X281381Y36954D01*
X281389Y36947D01*
X281403Y36932D01*
X281421Y36918D01*
X281447Y36896D01*
X281476Y36874D01*
X281509Y36852D01*
X281549Y36827D01*
X281589Y36801D01*
X281636Y36779D01*
X281687Y36758D01*
X281742Y36736D01*
X281803Y36721D01*
X281865Y36707D01*
X281931Y36699D01*
X282000Y36696D01*
X282033D01*
X282066Y36699D01*
X282109Y36703D01*
X282164Y36710D01*
X282219Y36725D01*
X282280Y36739D01*
X282339Y36761D01*
X282331Y36765D01*
X282313Y36779D01*
X282280Y36798D01*
X282240Y36819D01*
X282189Y36841D01*
X282135Y36867D01*
X282073Y36889D01*
X282007Y36907D01*
X282091Y37147D01*
X282095D01*
X282106Y37143D01*
X282120Y37140D01*
X282138Y37132D01*
X282164Y37125D01*
X282193Y37114D01*
X282259Y37089D01*
X282335Y37052D01*
X282415Y37012D01*
X282491Y36965D01*
X282568Y36907D01*
X282572Y36910D01*
X282582Y36918D01*
X282597Y36936D01*
X282615Y36958D01*
X282637Y36987D01*
X282663Y37020D01*
X282688Y37060D01*
X282717Y37107D01*
X282743Y37162D01*
X282768Y37224D01*
X282794Y37289D01*
X282816Y37358D01*
X282837Y37438D01*
X282852Y37522D01*
X282859Y37613D01*
X282863Y37711D01*
Y37715D01*
Y37726D01*
Y37740D01*
Y37762D01*
X282859Y37791D01*
Y37820D01*
X282856Y37857D01*
X282848Y37893D01*
X282837Y37977D01*
X282819Y38068D01*
X282794Y38159D01*
X282757Y38246D01*
Y38250D01*
X282754Y38257D01*
X282746Y38268D01*
X282739Y38283D01*
X282714Y38326D01*
X282681Y38377D01*
X282637Y38436D01*
X282582Y38494D01*
X282521Y38552D01*
X282452Y38603D01*
X282448D01*
X282444Y38610D01*
X282433Y38614D01*
X282415Y38625D01*
X282397Y38632D01*
X282375Y38643D01*
X282320Y38669D01*
X282255Y38690D01*
X282178Y38712D01*
X282091Y38727D01*
X282000Y38730D01*
D02*
G37*
G36*
X243183Y53602D02*
X242350D01*
Y52852D01*
X242354Y52809D01*
X242357Y52758D01*
X242361Y52700D01*
X242368Y52641D01*
X242379Y52583D01*
X242394Y52532D01*
X242397Y52525D01*
X242405Y52510D01*
X242415Y52488D01*
X242430Y52459D01*
X242452Y52426D01*
X242477Y52394D01*
X242510Y52361D01*
X242546Y52336D01*
X242550Y52332D01*
X242565Y52324D01*
X242586Y52314D01*
X242616Y52299D01*
X242648Y52288D01*
X242685Y52277D01*
X242728Y52270D01*
X242772Y52266D01*
X242776D01*
X242779D01*
X242801Y52270D01*
X242834Y52274D01*
X242878Y52281D01*
X242921Y52299D01*
X242972Y52321D01*
X243020Y52354D01*
X243067Y52397D01*
X243071Y52405D01*
X243085Y52423D01*
X243103Y52452D01*
X243125Y52499D01*
X243147Y52554D01*
X243165Y52627D01*
X243180Y52710D01*
X243183Y52809D01*
Y53602D01*
D02*
G37*
G36*
X241833Y49373D02*
Y48579D01*
X242961D01*
X241833Y49373D01*
D02*
G37*
G36*
X220138Y60406D02*
X219388D01*
X219344Y60402D01*
X219293Y60399D01*
X219235Y60395D01*
X219177Y60388D01*
X219118Y60377D01*
X219067Y60362D01*
X219060Y60359D01*
X219046Y60351D01*
X219024Y60340D01*
X218995Y60326D01*
X218962Y60304D01*
X218929Y60279D01*
X218896Y60246D01*
X218871Y60210D01*
X218867Y60206D01*
X218860Y60191D01*
X218849Y60169D01*
X218834Y60140D01*
X218824Y60107D01*
X218813Y60071D01*
X218805Y60027D01*
X218802Y59984D01*
Y59980D01*
Y59977D01*
X218805Y59955D01*
X218809Y59922D01*
X218816Y59878D01*
X218834Y59834D01*
X218856Y59784D01*
X218889Y59736D01*
X218933Y59689D01*
X218940Y59685D01*
X218958Y59671D01*
X218987Y59653D01*
X219035Y59631D01*
X219089Y59609D01*
X219162Y59591D01*
X219246Y59576D01*
X219344Y59572D01*
X220138D01*
Y60406D01*
D02*
G37*
G36*
X201522Y34566D02*
X200729D01*
Y33732D01*
X201478D01*
X201522Y33736D01*
X201573Y33739D01*
X201631Y33743D01*
X201690Y33750D01*
X201748Y33761D01*
X201799Y33776D01*
X201806Y33779D01*
X201820Y33787D01*
X201842Y33798D01*
X201871Y33812D01*
X201904Y33834D01*
X201937Y33860D01*
X201970Y33892D01*
X201995Y33929D01*
X201999Y33932D01*
X202006Y33947D01*
X202017Y33969D01*
X202032Y33998D01*
X202043Y34031D01*
X202053Y34067D01*
X202061Y34111D01*
X202064Y34154D01*
Y34158D01*
Y34162D01*
X202061Y34183D01*
X202057Y34216D01*
X202050Y34260D01*
X202032Y34304D01*
X202010Y34355D01*
X201977Y34402D01*
X201933Y34449D01*
X201926Y34453D01*
X201908Y34467D01*
X201879Y34486D01*
X201831Y34508D01*
X201777Y34529D01*
X201704Y34547D01*
X201620Y34562D01*
X201522Y34566D01*
D02*
G37*
G36*
X203630Y34602D02*
X203601D01*
X203568Y34595D01*
X203524Y34587D01*
X203477Y34573D01*
X203426Y34555D01*
X203378Y34526D01*
X203331Y34486D01*
X203327Y34482D01*
X203313Y34467D01*
X203295Y34442D01*
X203276Y34409D01*
X203255Y34369D01*
X203237Y34322D01*
X203222Y34271D01*
X203218Y34213D01*
Y34209D01*
Y34205D01*
X203222Y34183D01*
X203226Y34151D01*
X203233Y34111D01*
X203247Y34063D01*
X203266Y34016D01*
X203295Y33965D01*
X203331Y33921D01*
X203335Y33918D01*
X203353Y33903D01*
X203378Y33885D01*
X203411Y33867D01*
X203455Y33845D01*
X203506Y33827D01*
X203564Y33812D01*
X203630Y33809D01*
X203637D01*
X203659Y33812D01*
X203692Y33816D01*
X203735Y33823D01*
X203783Y33838D01*
X203830Y33856D01*
X203881Y33885D01*
X203924Y33921D01*
X203928Y33925D01*
X203943Y33943D01*
X203961Y33965D01*
X203983Y33998D01*
X204005Y34038D01*
X204023Y34085D01*
X204037Y34140D01*
X204041Y34198D01*
Y34202D01*
Y34205D01*
Y34227D01*
X204034Y34260D01*
X204026Y34300D01*
X204012Y34344D01*
X203990Y34391D01*
X203961Y34438D01*
X203921Y34486D01*
X203917Y34489D01*
X203899Y34504D01*
X203873Y34522D01*
X203841Y34544D01*
X203797Y34566D01*
X203750Y34584D01*
X203692Y34598D01*
X203630Y34602D01*
D02*
G37*
G36*
X203619Y33557D02*
X203597D01*
X203582Y33554D01*
X203542Y33550D01*
X203491Y33539D01*
X203433Y33521D01*
X203375Y33496D01*
X203313Y33459D01*
X203258Y33412D01*
X203251Y33404D01*
X203237Y33386D01*
X203215Y33354D01*
X203189Y33314D01*
X203160Y33259D01*
X203138Y33197D01*
X203124Y33128D01*
X203116Y33051D01*
Y33044D01*
Y33030D01*
X203120Y33004D01*
X203124Y32971D01*
X203131Y32931D01*
X203142Y32888D01*
X203156Y32844D01*
X203175Y32797D01*
X203178Y32793D01*
X203186Y32775D01*
X203200Y32753D01*
X203222Y32728D01*
X203247Y32695D01*
X203280Y32662D01*
X203317Y32633D01*
X203360Y32604D01*
X203367Y32600D01*
X203382Y32593D01*
X203408Y32582D01*
X203440Y32571D01*
X203480Y32560D01*
X203528Y32549D01*
X203579Y32542D01*
X203630Y32538D01*
X203651D01*
X203666Y32542D01*
X203710Y32546D01*
X203761Y32556D01*
X203819Y32575D01*
X203881Y32596D01*
X203939Y32633D01*
X203997Y32680D01*
X204005Y32688D01*
X204019Y32706D01*
X204045Y32738D01*
X204070Y32778D01*
X204096Y32829D01*
X204121Y32891D01*
X204136Y32964D01*
X204143Y33040D01*
Y33044D01*
Y33051D01*
Y33062D01*
X204139Y33077D01*
X204136Y33117D01*
X204125Y33172D01*
X204106Y33226D01*
X204081Y33288D01*
X204045Y33350D01*
X203994Y33408D01*
X203986Y33415D01*
X203968Y33430D01*
X203935Y33456D01*
X203892Y33485D01*
X203837Y33510D01*
X203772Y33536D01*
X203699Y33550D01*
X203619Y33557D01*
D02*
G37*
G36*
X388047Y133523D02*
X386125D01*
Y132926D01*
X386129Y132901D01*
X386133Y132846D01*
X386136Y132784D01*
X386143Y132719D01*
X386154Y132653D01*
X386169Y132599D01*
X386173Y132592D01*
X386176Y132573D01*
X386187Y132548D01*
X386202Y132515D01*
X386224Y132479D01*
X386245Y132442D01*
X386271Y132406D01*
X386300Y132370D01*
X386307Y132366D01*
X386322Y132351D01*
X386347Y132329D01*
X386384Y132304D01*
X386431Y132275D01*
X386486Y132242D01*
X386547Y132213D01*
X386617Y132188D01*
X386620D01*
X386628Y132184D01*
X386638Y132180D01*
X386653Y132177D01*
X386671Y132173D01*
X386697Y132166D01*
X386722Y132158D01*
X386751Y132151D01*
X386824Y132140D01*
X386908Y132129D01*
X387002Y132122D01*
X387104Y132118D01*
X387108D01*
X387123D01*
X387141D01*
X387170Y132122D01*
X387203D01*
X387239Y132126D01*
X387283Y132129D01*
X387326Y132133D01*
X387425Y132151D01*
X387527Y132173D01*
X387621Y132206D01*
X387669Y132228D01*
X387709Y132249D01*
X387712D01*
X387719Y132257D01*
X387730Y132264D01*
X387745Y132271D01*
X387781Y132300D01*
X387825Y132337D01*
X387872Y132384D01*
X387920Y132439D01*
X387960Y132501D01*
X387993Y132566D01*
X387996Y132573D01*
X388000Y132592D01*
X388011Y132624D01*
X388022Y132672D01*
X388029Y132730D01*
X388040Y132803D01*
X388043Y132846D01*
Y132894D01*
X388047Y132941D01*
Y133523D01*
D02*
G37*
G36*
X171748Y100618D02*
X171726D01*
X171712Y100614D01*
X171675Y100610D01*
X171624Y100599D01*
X171570Y100581D01*
X171508Y100552D01*
X171449Y100516D01*
X171391Y100465D01*
X171384Y100457D01*
X171369Y100439D01*
X171344Y100407D01*
X171318Y100359D01*
X171293Y100304D01*
X171267Y100235D01*
X171253Y100159D01*
X171246Y100072D01*
Y100064D01*
Y100046D01*
X171249Y100013D01*
X171253Y99973D01*
X171260Y99926D01*
X171275Y99875D01*
X171289Y99820D01*
X171311Y99766D01*
X171315Y99759D01*
X171326Y99740D01*
X171340Y99715D01*
X171362Y99682D01*
X171388Y99649D01*
X171420Y99609D01*
X171457Y99576D01*
X171500Y99544D01*
X171508Y99540D01*
X171522Y99533D01*
X171548Y99518D01*
X171580Y99507D01*
X171617Y99493D01*
X171660Y99478D01*
X171708Y99471D01*
X171759Y99467D01*
X171777D01*
X171792Y99471D01*
X171828Y99475D01*
X171875Y99486D01*
X171926Y99507D01*
X171985Y99533D01*
X172043Y99573D01*
X172072Y99595D01*
X172097Y99624D01*
Y99628D01*
X172105Y99631D01*
X172119Y99653D01*
X172141Y99689D01*
X172170Y99737D01*
X172196Y99799D01*
X172217Y99871D01*
X172232Y99955D01*
X172239Y100053D01*
Y100057D01*
Y100064D01*
Y100079D01*
X172236Y100097D01*
Y100119D01*
X172232Y100144D01*
X172221Y100203D01*
X172206Y100268D01*
X172181Y100337D01*
X172145Y100403D01*
X172097Y100465D01*
X172090Y100472D01*
X172072Y100490D01*
X172043Y100512D01*
X172003Y100541D01*
X171952Y100570D01*
X171894Y100592D01*
X171824Y100610D01*
X171748Y100618D01*
D02*
G37*
G36*
X167664Y101495D02*
X166870D01*
Y100661D01*
X167620D01*
X167664Y100665D01*
X167715Y100669D01*
X167773Y100672D01*
X167831Y100680D01*
X167889Y100690D01*
X167940Y100705D01*
X167948Y100709D01*
X167962Y100716D01*
X167984Y100727D01*
X168013Y100741D01*
X168046Y100763D01*
X168079Y100789D01*
X168112Y100821D01*
X168137Y100858D01*
X168141Y100862D01*
X168148Y100876D01*
X168159Y100898D01*
X168173Y100927D01*
X168184Y100960D01*
X168195Y100996D01*
X168202Y101040D01*
X168206Y101084D01*
Y101087D01*
Y101091D01*
X168202Y101113D01*
X168199Y101145D01*
X168192Y101189D01*
X168173Y101233D01*
X168151Y101284D01*
X168119Y101331D01*
X168075Y101378D01*
X168068Y101382D01*
X168050Y101397D01*
X168020Y101415D01*
X167973Y101437D01*
X167919Y101458D01*
X167846Y101477D01*
X167762Y101491D01*
X167664Y101495D01*
D02*
G37*
G36*
X304251Y144153D02*
X303417D01*
Y143403D01*
X303421Y143360D01*
X303425Y143309D01*
X303428Y143251D01*
X303435Y143192D01*
X303446Y143134D01*
X303461Y143083D01*
X303465Y143076D01*
X303472Y143061D01*
X303483Y143040D01*
X303497Y143010D01*
X303519Y142978D01*
X303545Y142945D01*
X303577Y142912D01*
X303614Y142887D01*
X303617Y142883D01*
X303632Y142876D01*
X303654Y142865D01*
X303683Y142850D01*
X303716Y142839D01*
X303752Y142828D01*
X303796Y142821D01*
X303839Y142817D01*
X303843D01*
X303847D01*
X303869Y142821D01*
X303901Y142825D01*
X303945Y142832D01*
X303989Y142850D01*
X304040Y142872D01*
X304087Y142905D01*
X304134Y142948D01*
X304138Y142956D01*
X304152Y142974D01*
X304171Y143003D01*
X304192Y143050D01*
X304214Y143105D01*
X304233Y143178D01*
X304247Y143262D01*
X304251Y143360D01*
Y144153D01*
D02*
G37*
G36*
X281810Y153208D02*
X280976D01*
Y152459D01*
X280980Y152415D01*
X280983Y152364D01*
X280987Y152306D01*
X280994Y152248D01*
X281005Y152189D01*
X281020Y152138D01*
X281024Y152131D01*
X281031Y152117D01*
X281042Y152095D01*
X281056Y152066D01*
X281078Y152033D01*
X281104Y152000D01*
X281136Y151967D01*
X281173Y151942D01*
X281176Y151938D01*
X281191Y151931D01*
X281213Y151920D01*
X281242Y151905D01*
X281275Y151894D01*
X281311Y151883D01*
X281355Y151876D01*
X281399Y151873D01*
X281402D01*
X281406D01*
X281428Y151876D01*
X281460Y151880D01*
X281504Y151887D01*
X281548Y151905D01*
X281599Y151927D01*
X281646Y151960D01*
X281693Y152004D01*
X281697Y152011D01*
X281712Y152029D01*
X281730Y152058D01*
X281752Y152105D01*
X281773Y152160D01*
X281792Y152233D01*
X281806Y152317D01*
X281810Y152415D01*
Y153208D01*
D02*
G37*
G36*
X280387Y150792D02*
X280379D01*
X280361D01*
X280328Y150788D01*
X280288Y150784D01*
X280241Y150777D01*
X280190Y150762D01*
X280135Y150748D01*
X280081Y150726D01*
X280073Y150722D01*
X280055Y150711D01*
X280030Y150697D01*
X279997Y150675D01*
X279964Y150649D01*
X279924Y150617D01*
X279891Y150580D01*
X279859Y150537D01*
X279855Y150529D01*
X279848Y150515D01*
X279833Y150489D01*
X279822Y150457D01*
X279808Y150420D01*
X279793Y150376D01*
X279786Y150329D01*
X279782Y150278D01*
Y150260D01*
X279786Y150245D01*
X279790Y150209D01*
X279801Y150162D01*
X279822Y150111D01*
X279848Y150053D01*
X279888Y149994D01*
X279910Y149965D01*
X279939Y149940D01*
X279942D01*
X279946Y149933D01*
X279968Y149918D01*
X280004Y149896D01*
X280052Y149867D01*
X280114Y149841D01*
X280186Y149820D01*
X280270Y149805D01*
X280368Y149798D01*
X280372D01*
X280379D01*
X280394D01*
X280412Y149801D01*
X280434D01*
X280459Y149805D01*
X280518Y149816D01*
X280583Y149830D01*
X280652Y149856D01*
X280718Y149892D01*
X280780Y149940D01*
X280787Y149947D01*
X280805Y149965D01*
X280827Y149994D01*
X280856Y150034D01*
X280885Y150085D01*
X280907Y150144D01*
X280925Y150213D01*
X280933Y150289D01*
Y150311D01*
X280929Y150326D01*
X280925Y150362D01*
X280914Y150413D01*
X280896Y150468D01*
X280867Y150529D01*
X280831Y150588D01*
X280780Y150646D01*
X280772Y150653D01*
X280754Y150668D01*
X280721Y150693D01*
X280674Y150719D01*
X280620Y150744D01*
X280550Y150770D01*
X280474Y150784D01*
X280387Y150792D01*
D02*
G37*
G36*
X178203Y194930D02*
X177409Y193801D01*
X178203D01*
Y194930D01*
D02*
G37*
G36*
X175932Y195152D02*
X175138D01*
Y194318D01*
X175888D01*
X175932Y194322D01*
X175982Y194326D01*
X176041Y194329D01*
X176099Y194337D01*
X176157Y194348D01*
X176208Y194362D01*
X176215Y194366D01*
X176230Y194373D01*
X176252Y194384D01*
X176281Y194398D01*
X176314Y194420D01*
X176347Y194446D01*
X176379Y194478D01*
X176405Y194515D01*
X176408Y194519D01*
X176416Y194533D01*
X176426Y194555D01*
X176441Y194584D01*
X176452Y194617D01*
X176463Y194653D01*
X176470Y194697D01*
X176474Y194741D01*
Y194744D01*
Y194748D01*
X176470Y194770D01*
X176467Y194802D01*
X176459Y194846D01*
X176441Y194890D01*
X176419Y194941D01*
X176386Y194988D01*
X176343Y195036D01*
X176336Y195039D01*
X176317Y195054D01*
X176288Y195072D01*
X176241Y195094D01*
X176186Y195115D01*
X176113Y195134D01*
X176030Y195148D01*
X175932Y195152D01*
D02*
G37*
%LPD*%
D40*
X211039Y191606D02*
X248008D01*
X211039D02*
Y232394D01*
X248008D01*
Y191606D02*
Y232394D01*
X246791Y76354D02*
Y95646D01*
X203996Y76354D02*
X246791D01*
X203996D02*
Y95646D01*
X246791D01*
X270894Y59055D02*
X290697D01*
Y14945D02*
Y59055D01*
X270894Y14945D02*
X290697D01*
X270894D02*
Y59055D01*
X237205Y62598D02*
X244685D01*
X237205Y45276D02*
Y62598D01*
Y45276D02*
X244685D01*
Y62598D01*
X229134Y58071D02*
Y65551D01*
X211811D02*
X229134D01*
X211811Y58071D02*
Y65551D01*
Y58071D02*
X229134D01*
X191732Y28543D02*
Y36024D01*
Y28543D02*
X209055D01*
Y36024D01*
X191732D02*
X209055D01*
X391732Y112933D02*
Y154783D01*
X379921Y112933D02*
X391732D01*
X379921D02*
Y154783D01*
X391732D01*
X157874Y95472D02*
Y102953D01*
Y95472D02*
X175197D01*
Y102953D01*
X157874D02*
X175197D01*
X298228Y153150D02*
X305709D01*
X298228Y135827D02*
Y153150D01*
Y135827D02*
X305709D01*
Y153150D01*
X275787Y162205D02*
X283268D01*
X275787Y144882D02*
Y162205D01*
Y144882D02*
X283268D01*
Y162205D01*
X166142Y189173D02*
Y196653D01*
Y189173D02*
X183465D01*
Y196653D01*
X166142D02*
X183465D01*
%TF.MD5,b589f0580fa7df0c34a458a8bc7ae678*%
M02*
