%TF.GenerationSoftware,Altium Limited,Altium Designer,25.1.2 (22)*%
G04 Layer_Color=128*
%FSLAX25Y25*%
%MOIN*%
%TF.SameCoordinates,C6B27E67-7A8A-4C38-9DB9-D7D7B609FA95*%
%TF.FilePolarity,Positive*%
%TF.FileFunction,Drillmap*%
%TF.Part,Single*%
G01*
G75*
%TA.AperFunction,NonConductor*%
%ADD42C,0.00500*%
D42*
X121063Y243110D02*
X128937D01*
X125000Y239173D02*
Y247047D01*
X141929Y243110D02*
X149803D01*
X145866Y239173D02*
Y247047D01*
X237106Y248031D02*
X239272D01*
X238189Y246949D02*
Y249114D01*
X227106Y248031D02*
X229272D01*
X228189Y246949D02*
Y249114D01*
X165748Y248031D02*
X168898D01*
X167323Y246457D02*
Y249606D01*
X209055Y248031D02*
X212205D01*
X210630Y246457D02*
Y249606D01*
X243677Y197000D02*
X246630D01*
X245153Y195524D02*
Y198476D01*
X243677Y207000D02*
X246630D01*
X245153Y205524D02*
Y208476D01*
X243677Y217000D02*
X246630D01*
X245153Y215524D02*
Y218476D01*
X243677Y227000D02*
X246630D01*
X245153Y225524D02*
Y228476D01*
X212417Y227000D02*
X215370D01*
X213894Y225524D02*
Y228476D01*
X212417Y217000D02*
X215370D01*
X213894Y215524D02*
Y218476D01*
X212417Y207000D02*
X215370D01*
X213894Y205524D02*
Y208476D01*
X212417Y197000D02*
X215370D01*
X213894Y195524D02*
Y198476D01*
X258622Y174500D02*
X262165D01*
X260394Y172728D02*
Y176272D01*
X248622Y174500D02*
X252165D01*
X250394Y172728D02*
Y176272D01*
X238622Y174500D02*
X242165D01*
X240394Y172728D02*
Y176272D01*
X228622Y174500D02*
X232165D01*
X230394Y172728D02*
Y176272D01*
X218622Y174500D02*
X222165D01*
X220394Y172728D02*
Y176272D01*
X208622Y174500D02*
X212165D01*
X210394Y172728D02*
Y176272D01*
X198622Y174500D02*
X202165D01*
X200394Y172728D02*
Y176272D01*
X258622Y144500D02*
X262165D01*
X260394Y142728D02*
Y146272D01*
X248622Y144500D02*
X252165D01*
X250394Y142728D02*
Y146272D01*
X238622Y144500D02*
X242165D01*
X240394Y142728D02*
Y146272D01*
X228622Y144500D02*
X232165D01*
X230394Y142728D02*
Y146272D01*
X218622Y144500D02*
X222165D01*
X220394Y142728D02*
Y146272D01*
X208622Y144500D02*
X212165D01*
X210394Y142728D02*
Y146272D01*
X198622Y144500D02*
X202165D01*
X200394Y142728D02*
Y146272D01*
X232736Y88126D02*
X238051D01*
X235394Y85469D02*
Y90784D01*
X222736Y88126D02*
X228051D01*
X225394Y85469D02*
Y90784D01*
X212736Y88126D02*
X218051D01*
X215394Y85469D02*
Y90784D01*
X258720Y47783D02*
X262067D01*
X260394Y46110D02*
Y49457D01*
X258720Y83217D02*
X262067D01*
X260394Y81543D02*
Y84890D01*
X275835Y47000D02*
X280953D01*
X278394Y44441D02*
Y49559D01*
X275835Y37000D02*
X280953D01*
X278394Y34441D02*
Y39559D01*
X275835Y27000D02*
X280953D01*
X278394Y24441D02*
Y29559D01*
X133858Y159449D02*
X149606D01*
X141732Y151575D02*
Y167323D01*
X119488Y149606D02*
X124606D01*
X122047Y147047D02*
Y152165D01*
X158858Y159449D02*
X163976D01*
X161417Y156890D02*
Y162008D01*
X119488Y169291D02*
X124606D01*
X122047Y166732D02*
Y171850D01*
X100787Y183071D02*
X103937D01*
X102362Y181496D02*
Y184646D01*
X100787Y139764D02*
X103937D01*
X102362Y138189D02*
Y141339D01*
X125444Y115500D02*
X129344D01*
X127394Y113550D02*
Y117450D01*
X120444Y125500D02*
X124344D01*
X122394Y123550D02*
Y127450D01*
X115444Y115500D02*
X119344D01*
X117394Y113550D02*
Y117450D01*
X122047Y78740D02*
X137795D01*
X129921Y70866D02*
Y86614D01*
X107677Y68898D02*
X112795D01*
X110236Y66339D02*
Y71457D01*
X147047Y78740D02*
X152165D01*
X149606Y76181D02*
Y81299D01*
X107677Y88583D02*
X112795D01*
X110236Y86024D02*
Y91142D01*
X162122Y47500D02*
X165665D01*
X163894Y45728D02*
Y49272D01*
X172122Y47500D02*
X175665D01*
X173894Y45728D02*
Y49272D01*
X182122Y47500D02*
X185665D01*
X183894Y45728D02*
Y49272D01*
X192122Y47500D02*
X195665D01*
X193894Y45728D02*
Y49272D01*
X162122Y77500D02*
X165665D01*
X163894Y75728D02*
Y79272D01*
X172122Y77500D02*
X175665D01*
X173894Y75728D02*
Y79272D01*
X182122Y77500D02*
X185665D01*
X183894Y75728D02*
Y79272D01*
X192122Y77500D02*
X195665D01*
X193894Y75728D02*
Y79272D01*
X178622Y123000D02*
X182165D01*
X180394Y121228D02*
Y124772D01*
X178622Y143000D02*
X182165D01*
X180394Y141228D02*
Y144772D01*
X178622Y133000D02*
X182165D01*
X180394Y131228D02*
Y134772D01*
X383858Y151339D02*
X387795D01*
X385827Y149370D02*
Y153307D01*
X383858Y116378D02*
X387795D01*
X385827Y114409D02*
Y118347D01*
X295020Y100657D02*
X300138D01*
X297579Y98098D02*
Y103217D01*
X255650Y110500D02*
X260768D01*
X258209Y107941D02*
Y113059D01*
X295020Y120343D02*
X300138D01*
X297579Y117783D02*
Y122902D01*
X270020Y110500D02*
X285768D01*
X277894Y102626D02*
Y118374D01*
X330709Y161417D02*
X346457D01*
X338583Y153543D02*
Y169291D01*
X355709Y171260D02*
X360827D01*
X358268Y168701D02*
Y173819D01*
X316339Y161417D02*
X321457D01*
X318898Y158858D02*
Y163976D01*
X355709Y151575D02*
X360827D01*
X358268Y149016D02*
Y154134D01*
X331020Y217000D02*
X346768D01*
X338894Y209126D02*
Y224874D01*
X356020Y226842D02*
X361138D01*
X358579Y224284D02*
Y229402D01*
X316650Y217000D02*
X321768D01*
X319209Y214441D02*
Y219559D01*
X356020Y207157D02*
X361138D01*
X358579Y204598D02*
Y209717D01*
X257165Y217000D02*
X260315D01*
X258740Y215425D02*
Y218575D01*
X300472Y217000D02*
X303622D01*
X302047Y215425D02*
Y218575D01*
X293937Y197000D02*
X297284D01*
X295610Y195327D02*
Y198673D01*
X258504Y197000D02*
X261850D01*
X260177Y195327D02*
Y198673D01*
X165504Y207000D02*
X168850D01*
X167177Y205327D02*
Y208673D01*
X200937Y207000D02*
X204283D01*
X202610Y205327D02*
Y208673D01*
X81339Y234252D02*
X97795D01*
X89567Y226024D02*
Y242480D01*
X346102Y37000D02*
X362559D01*
X354331Y28772D02*
Y45228D01*
X132458Y133858D02*
X135258D01*
X133858Y132458D02*
Y135258D01*
X292301Y181890D02*
X295101D01*
X293701Y180490D02*
Y183290D01*
X189151Y193307D02*
X191951D01*
X190551Y191907D02*
Y194707D01*
X182458Y98819D02*
X185258D01*
X183858Y97419D02*
Y100219D01*
X158836Y110630D02*
X161636D01*
X160236Y109230D02*
Y112030D01*
X300569Y159843D02*
X303368D01*
X301969Y158442D02*
Y161242D01*
X233994Y130000D02*
X236794D01*
X235394Y128600D02*
Y131400D01*
X278128Y169291D02*
X280928D01*
X279528Y167891D02*
Y170691D01*
X219072Y32283D02*
X221872D01*
X220472Y30883D02*
Y33683D01*
X102008Y35433D02*
X118465D01*
X110236Y27205D02*
Y43661D01*
X389409Y192913D02*
X405866D01*
X397638Y184685D02*
Y201142D01*
%TF.MD5,2c89570c3abcd3ead77d4d55506c88b9*%
M02*
