%TF.GenerationSoftware,Altium Limited,Altium Designer,25.1.2 (22)*%
G04 Layer_Color=255*
%FSLAX25Y25*%
%MOIN*%
%TF.SameCoordinates,C6B27E67-7A8A-4C38-9DB9-D7D7B609FA95*%
%TF.FilePolarity,Positive*%
%TF.FileFunction,Pads,Top*%
%TF.Part,Single*%
G01*
G75*
%TA.AperFunction,SMDPad,CuDef*%
%ADD10R,0.05906X0.03937*%
%ADD11R,0.03937X0.05906*%
%TA.AperFunction,ComponentPad*%
%ADD16C,0.11811*%
%ADD17C,0.05118*%
%ADD18C,0.04724*%
%ADD19R,0.04921X0.04921*%
%ADD20C,0.04921*%
%ADD21R,0.05906X0.05906*%
%ADD22C,0.05906*%
%ADD23R,0.08071X0.08071*%
%ADD24C,0.08071*%
%ADD25C,0.05315*%
%ADD26R,0.05315X0.05315*%
%ADD27R,0.07874X0.07874*%
%ADD28C,0.07874*%
%ADD29C,0.15748*%
%ADD30C,0.07677*%
%ADD31R,0.07677X0.07677*%
%ADD32C,0.05900*%
%ADD33R,0.05900X0.05900*%
%ADD34R,0.06102X0.06102*%
%ADD35C,0.06102*%
%ADD36R,0.05315X0.05315*%
D10*
X240945Y47638D02*
D03*
Y60236D02*
D03*
X301969Y138189D02*
D03*
Y150787D02*
D03*
X279528Y147244D02*
D03*
Y159843D02*
D03*
D11*
X214173Y61811D02*
D03*
X226772D02*
D03*
X206693Y32283D02*
D03*
X194095D02*
D03*
X172835Y99213D02*
D03*
X160236D02*
D03*
X181102Y192913D02*
D03*
X168504D02*
D03*
D16*
X125000Y243110D02*
D03*
X145866D02*
D03*
D17*
X238189Y248031D02*
D03*
X228189D02*
D03*
D18*
X167323D02*
D03*
X210630D02*
D03*
X102362Y183071D02*
D03*
Y139764D02*
D03*
X258740Y217000D02*
D03*
X302047D02*
D03*
D19*
X245153Y197000D02*
D03*
D20*
Y207000D02*
D03*
Y217000D02*
D03*
Y227000D02*
D03*
X213894D02*
D03*
Y217000D02*
D03*
Y207000D02*
D03*
Y197000D02*
D03*
D21*
X260394Y174500D02*
D03*
X193894Y77500D02*
D03*
D22*
X250394Y174500D02*
D03*
X240394D02*
D03*
X230394D02*
D03*
X220394D02*
D03*
X210394D02*
D03*
X200394D02*
D03*
X260394Y144500D02*
D03*
X250394D02*
D03*
X240394D02*
D03*
X230394D02*
D03*
X220394D02*
D03*
X210394D02*
D03*
X200394D02*
D03*
X163894Y47500D02*
D03*
X173894D02*
D03*
X183894D02*
D03*
X193894D02*
D03*
X163894Y77500D02*
D03*
X173894D02*
D03*
X183894D02*
D03*
D23*
X235394Y88126D02*
D03*
D24*
X225394D02*
D03*
X215394D02*
D03*
D25*
X260394Y47783D02*
D03*
X180394Y143000D02*
D03*
Y133000D02*
D03*
X295610Y197000D02*
D03*
X167177Y207000D02*
D03*
D26*
X260394Y83217D02*
D03*
X180394Y123000D02*
D03*
D27*
X278394Y47000D02*
D03*
D28*
Y37000D02*
D03*
Y27000D02*
D03*
D29*
X141732Y159449D02*
D03*
X129921Y78740D02*
D03*
X277894Y110500D02*
D03*
X338583Y161417D02*
D03*
X338894Y217000D02*
D03*
D30*
X122047Y149606D02*
D03*
X161417Y159449D02*
D03*
X110236Y68898D02*
D03*
X149606Y78740D02*
D03*
X258209Y110500D02*
D03*
X297579Y120343D02*
D03*
X358268Y171260D02*
D03*
X318898Y161417D02*
D03*
X358579Y226842D02*
D03*
X319209Y217000D02*
D03*
D31*
X122047Y169291D02*
D03*
X110236Y88583D02*
D03*
X297579Y100657D02*
D03*
X358268Y151575D02*
D03*
X358579Y207157D02*
D03*
D32*
X127394Y115500D02*
D03*
X122394Y125500D02*
D03*
D33*
X117394Y115500D02*
D03*
D34*
X385827Y151339D02*
D03*
D35*
Y116378D02*
D03*
D36*
X260177Y197000D02*
D03*
X202610Y207000D02*
D03*
%TF.MD5,0e3016bdf39e4ad851b7082913e4bb8d*%
M02*
