%TF.GenerationSoftware,Altium Limited,Altium Designer,25.1.2 (22)*%
G04 Layer_Color=0*
%FSLAX25Y25*%
%MOIN*%
%TF.SameCoordinates,C6B27E67-7A8A-4C38-9DB9-D7D7B609FA95*%
%TF.FilePolarity,Positive*%
%TF.FileFunction,Plated,1,4,PTH,Drill*%
%TF.Part,Single*%
G01*
G75*
%TA.AperFunction,ComponentDrill*%
%ADD67C,0.07874*%
%ADD68C,0.02165*%
%ADD69C,0.03150*%
%ADD70C,0.02953*%
%ADD71C,0.03543*%
%ADD72C,0.05315*%
%ADD73C,0.03347*%
%ADD74C,0.05118*%
%ADD75C,0.05118*%
%ADD76C,0.03150*%
%ADD77C,0.03900*%
%ADD78C,0.03937*%
%ADD79C,0.03347*%
%TA.AperFunction,ViaDrill,NotFilled*%
%ADD80C,0.16457*%
%ADD81C,0.02800*%
D67*
X125000Y243110D02*
D03*
X145866D02*
D03*
D68*
X238189Y248031D02*
D03*
X228189D02*
D03*
D69*
X167323D02*
D03*
X210630D02*
D03*
X258740Y217000D02*
D03*
X302047D02*
D03*
D70*
X245153Y197000D02*
D03*
Y207000D02*
D03*
Y217000D02*
D03*
Y227000D02*
D03*
X213894D02*
D03*
Y217000D02*
D03*
Y207000D02*
D03*
Y197000D02*
D03*
D71*
X260394Y174500D02*
D03*
X250394D02*
D03*
X240394D02*
D03*
X230394D02*
D03*
X220394D02*
D03*
X210394D02*
D03*
X200394D02*
D03*
X260394Y144500D02*
D03*
X250394D02*
D03*
X240394D02*
D03*
X230394D02*
D03*
X220394D02*
D03*
X210394D02*
D03*
X200394D02*
D03*
X163894Y47500D02*
D03*
X173894D02*
D03*
X183894D02*
D03*
X193894D02*
D03*
X163894Y77500D02*
D03*
X173894D02*
D03*
X183894D02*
D03*
X193894D02*
D03*
X180394Y123000D02*
D03*
Y143000D02*
D03*
Y133000D02*
D03*
D72*
X235394Y88126D02*
D03*
X225394D02*
D03*
X215394D02*
D03*
D73*
X260394Y47783D02*
D03*
Y83217D02*
D03*
D74*
X278394Y47000D02*
D03*
Y37000D02*
D03*
Y27000D02*
D03*
D75*
X122047Y149606D02*
D03*
X161417Y159449D02*
D03*
X122047Y169291D02*
D03*
X110236Y68898D02*
D03*
X149606Y78740D02*
D03*
X110236Y88583D02*
D03*
X297579Y100657D02*
D03*
X258209Y110500D02*
D03*
X297579Y120343D02*
D03*
X358268Y171260D02*
D03*
X318898Y161417D02*
D03*
X358268Y151575D02*
D03*
X358579Y226842D02*
D03*
X319209Y217000D02*
D03*
X358579Y207157D02*
D03*
D76*
X102362Y183071D02*
D03*
Y139764D02*
D03*
D77*
X127394Y115500D02*
D03*
X122394Y125500D02*
D03*
X117394Y115500D02*
D03*
D78*
X385827Y151339D02*
D03*
Y116378D02*
D03*
D79*
X295610Y197000D02*
D03*
X260177D02*
D03*
X167177Y207000D02*
D03*
X202610D02*
D03*
D80*
X89567Y234252D02*
D03*
X354331Y37000D02*
D03*
X110236Y35433D02*
D03*
X397638Y192913D02*
D03*
D81*
X133858Y133858D02*
D03*
X293701Y181890D02*
D03*
X190551Y193307D02*
D03*
X183858Y98819D02*
D03*
X160236Y110630D02*
D03*
X301969Y159843D02*
D03*
X235394Y130000D02*
D03*
X279528Y169291D02*
D03*
X220472Y32283D02*
D03*
%TF.MD5,89e5a82221016af701a092aeaf660d53*%
M02*
