%TF.GenerationSoftware,Altium Limited,Altium Designer,25.1.2 (22)*%
G04 Layer_Color=2752767*
%FSLAX25Y25*%
%MOIN*%
%TF.SameCoordinates,C6B27E67-7A8A-4C38-9DB9-D7D7B609FA95*%
%TF.FilePolarity,Positive*%
%TF.FileFunction,Drawing*%
%TF.Part,Single*%
G01*
G75*
%TA.AperFunction,NonConductor*%
%ADD42C,0.00500*%
%ADD83C,0.00667*%
%ADD84C,0.00400*%
D42*
X123000Y241110D02*
X124000Y243110D01*
X123000Y245110D01*
X125000Y244110D01*
X127000Y245110D01*
X126000Y243110D01*
X127000Y241110D01*
X125000Y242110D01*
X123000Y241110D01*
X123800Y241910D02*
X124400Y243110D01*
X123800Y244310D01*
X125000Y243710D01*
X126200Y244310D01*
X125600Y243110D01*
X126200Y241910D01*
X125000Y242510D01*
X123800Y241910D01*
X143866Y241110D02*
X144866Y243110D01*
X143866Y245110D01*
X145866Y244110D01*
X147866Y245110D01*
X146866Y243110D01*
X147866Y241110D01*
X145866Y242110D01*
X143866Y241110D01*
X144666Y241910D02*
X145266Y243110D01*
X144666Y244310D01*
X145866Y243710D01*
X147066Y244310D01*
X146466Y243110D01*
X147066Y241910D01*
X145866Y242510D01*
X144666Y241910D01*
X238189Y246031D02*
X239189Y247031D01*
X240189D01*
X239189Y248031D01*
X240189Y249031D01*
X239189D01*
X238189Y250031D01*
X237189Y249031D01*
X236189D01*
X237189Y248031D01*
X236189Y247031D01*
X237189D01*
X238189Y246031D01*
Y246831D02*
X238789Y247431D01*
X239389D01*
X238789Y248031D01*
X239389Y248632D01*
X238789D01*
X238189Y249232D01*
X237589Y248632D01*
X236989D01*
X237589Y248031D01*
X236989Y247431D01*
X237589D01*
X238189Y246831D01*
X228189Y246031D02*
X229189Y247031D01*
X230189D01*
X229189Y248031D01*
X230189Y249031D01*
X229189D01*
X228189Y250031D01*
X227189Y249031D01*
X226189D01*
X227189Y248031D01*
X226189Y247031D01*
X227189D01*
X228189Y246031D01*
Y246831D02*
X228789Y247431D01*
X229389D01*
X228789Y248031D01*
X229389Y248632D01*
X228789D01*
X228189Y249232D01*
X227589Y248632D01*
X226989D01*
X227589Y248031D01*
X226989Y247431D01*
X227589D01*
X228189Y246831D01*
X243154Y195000D02*
X244153D01*
X245153Y196000D01*
X246153Y195000D01*
X247153D01*
Y196000D01*
X246153Y197000D01*
X247153Y198000D01*
Y199000D01*
X246153D01*
X245153Y198000D01*
X244153Y199000D01*
X243154D01*
Y198000D01*
X244153Y197000D01*
X243154Y196000D01*
Y195000D01*
Y205000D02*
X244153D01*
X245153Y206000D01*
X246153Y205000D01*
X247153D01*
Y206000D01*
X246153Y207000D01*
X247153Y208000D01*
Y209000D01*
X246153D01*
X245153Y208000D01*
X244153Y209000D01*
X243154D01*
Y208000D01*
X244153Y207000D01*
X243154Y206000D01*
Y205000D01*
Y215000D02*
X244153D01*
X245153Y216000D01*
X246153Y215000D01*
X247153D01*
Y216000D01*
X246153Y217000D01*
X247153Y218000D01*
Y219000D01*
X246153D01*
X245153Y218000D01*
X244153Y219000D01*
X243154D01*
Y218000D01*
X244153Y217000D01*
X243154Y216000D01*
Y215000D01*
Y225000D02*
X244153D01*
X245153Y226000D01*
X246153Y225000D01*
X247153D01*
Y226000D01*
X246153Y227000D01*
X247153Y228000D01*
Y229000D01*
X246153D01*
X245153Y228000D01*
X244153Y229000D01*
X243154D01*
Y228000D01*
X244153Y227000D01*
X243154Y226000D01*
Y225000D01*
X211894D02*
X212894D01*
X213894Y226000D01*
X214894Y225000D01*
X215894D01*
Y226000D01*
X214894Y227000D01*
X215894Y228000D01*
Y229000D01*
X214894D01*
X213894Y228000D01*
X212894Y229000D01*
X211894D01*
Y228000D01*
X212894Y227000D01*
X211894Y226000D01*
Y225000D01*
Y215000D02*
X212894D01*
X213894Y216000D01*
X214894Y215000D01*
X215894D01*
Y216000D01*
X214894Y217000D01*
X215894Y218000D01*
Y219000D01*
X214894D01*
X213894Y218000D01*
X212894Y219000D01*
X211894D01*
Y218000D01*
X212894Y217000D01*
X211894Y216000D01*
Y215000D01*
Y205000D02*
X212894D01*
X213894Y206000D01*
X214894Y205000D01*
X215894D01*
Y206000D01*
X214894Y207000D01*
X215894Y208000D01*
Y209000D01*
X214894D01*
X213894Y208000D01*
X212894Y209000D01*
X211894D01*
Y208000D01*
X212894Y207000D01*
X211894Y206000D01*
Y205000D01*
Y195000D02*
X212894D01*
X213894Y196000D01*
X214894Y195000D01*
X215894D01*
Y196000D01*
X214894Y197000D01*
X215894Y198000D01*
Y199000D01*
X214894D01*
X213894Y198000D01*
X212894Y199000D01*
X211894D01*
Y198000D01*
X212894Y197000D01*
X211894Y196000D01*
Y195000D01*
X258394Y172500D02*
X259394Y174500D01*
X258394Y176500D01*
X260394Y175500D01*
X262394Y176500D01*
X261394Y174500D01*
X262394Y172500D01*
X260394Y173500D01*
X258394Y172500D01*
X248394D02*
X249394Y174500D01*
X248394Y176500D01*
X250394Y175500D01*
X252394Y176500D01*
X251394Y174500D01*
X252394Y172500D01*
X250394Y173500D01*
X248394Y172500D01*
X238394D02*
X239394Y174500D01*
X238394Y176500D01*
X240394Y175500D01*
X242394Y176500D01*
X241394Y174500D01*
X242394Y172500D01*
X240394Y173500D01*
X238394Y172500D01*
X228394D02*
X229394Y174500D01*
X228394Y176500D01*
X230394Y175500D01*
X232394Y176500D01*
X231394Y174500D01*
X232394Y172500D01*
X230394Y173500D01*
X228394Y172500D01*
X218394D02*
X219394Y174500D01*
X218394Y176500D01*
X220394Y175500D01*
X222394Y176500D01*
X221394Y174500D01*
X222394Y172500D01*
X220394Y173500D01*
X218394Y172500D01*
X208394D02*
X209394Y174500D01*
X208394Y176500D01*
X210394Y175500D01*
X212394Y176500D01*
X211394Y174500D01*
X212394Y172500D01*
X210394Y173500D01*
X208394Y172500D01*
X198394D02*
X199394Y174500D01*
X198394Y176500D01*
X200394Y175500D01*
X202394Y176500D01*
X201394Y174500D01*
X202394Y172500D01*
X200394Y173500D01*
X198394Y172500D01*
X258394Y142500D02*
X259394Y144500D01*
X258394Y146500D01*
X260394Y145500D01*
X262394Y146500D01*
X261394Y144500D01*
X262394Y142500D01*
X260394Y143500D01*
X258394Y142500D01*
X248394D02*
X249394Y144500D01*
X248394Y146500D01*
X250394Y145500D01*
X252394Y146500D01*
X251394Y144500D01*
X252394Y142500D01*
X250394Y143500D01*
X248394Y142500D01*
X238394D02*
X239394Y144500D01*
X238394Y146500D01*
X240394Y145500D01*
X242394Y146500D01*
X241394Y144500D01*
X242394Y142500D01*
X240394Y143500D01*
X238394Y142500D01*
X228394D02*
X229394Y144500D01*
X228394Y146500D01*
X230394Y145500D01*
X232394Y146500D01*
X231394Y144500D01*
X232394Y142500D01*
X230394Y143500D01*
X228394Y142500D01*
X218394D02*
X219394Y144500D01*
X218394Y146500D01*
X220394Y145500D01*
X222394Y146500D01*
X221394Y144500D01*
X222394Y142500D01*
X220394Y143500D01*
X218394Y142500D01*
X208394D02*
X209394Y144500D01*
X208394Y146500D01*
X210394Y145500D01*
X212394Y146500D01*
X211394Y144500D01*
X212394Y142500D01*
X210394Y143500D01*
X208394Y142500D01*
X198394D02*
X199394Y144500D01*
X198394Y146500D01*
X200394Y145500D01*
X202394Y146500D01*
X201394Y144500D01*
X202394Y142500D01*
X200394Y143500D01*
X198394Y142500D01*
X233394Y86126D02*
Y90126D01*
X237394D01*
Y86126D01*
X233394D01*
X234194Y86926D02*
Y89326D01*
X236594D01*
Y86926D01*
X234194D01*
X223394Y86126D02*
Y90126D01*
X227394D01*
Y86126D01*
X223394D01*
X224194Y86926D02*
Y89326D01*
X226594D01*
Y86926D01*
X224194D01*
X213394Y86126D02*
Y90126D01*
X217394D01*
Y86126D01*
X213394D01*
X214194Y86926D02*
Y89326D01*
X216594D01*
Y86926D01*
X214194D01*
X258394Y45783D02*
Y49784D01*
X262394D01*
Y45783D01*
X258394D01*
Y81217D02*
Y85216D01*
X262394D01*
Y81217D01*
X258394D01*
X278394Y45000D02*
X276394Y49000D01*
X280394D01*
X278394Y45000D01*
Y35000D02*
X276394Y39000D01*
X280394D01*
X278394Y35000D01*
Y25000D02*
X276394Y29000D01*
X280394D01*
X278394Y25000D01*
X141732Y157449D02*
X142732Y158449D01*
X143732D01*
X142732Y159449D01*
X143732Y160449D01*
X142732D01*
X141732Y161449D01*
X140732Y160449D01*
X139732D01*
X140732Y159449D01*
X139732Y158449D01*
X140732D01*
X141732Y157449D01*
X122047Y147606D02*
X120047Y151606D01*
X124047D01*
X122047Y147606D01*
X161417Y157449D02*
X159417Y161449D01*
X163417D01*
X161417Y157449D01*
X122047Y167291D02*
X120047Y171291D01*
X124047D01*
X122047Y167291D01*
X125394Y115500D02*
X127394Y117500D01*
X129394Y115500D01*
X127394Y113500D01*
X125394Y115500D01*
X120394Y125500D02*
X122394Y127500D01*
X124394Y125500D01*
X122394Y123500D01*
X120394Y125500D01*
X115394Y115500D02*
X117394Y117500D01*
X119394Y115500D01*
X117394Y113500D01*
X115394Y115500D01*
X129921Y76740D02*
X130921Y77740D01*
X131921D01*
X130921Y78740D01*
X131921Y79740D01*
X130921D01*
X129921Y80740D01*
X128921Y79740D01*
X127921D01*
X128921Y78740D01*
X127921Y77740D01*
X128921D01*
X129921Y76740D01*
X110236Y66898D02*
X108236Y70898D01*
X112236D01*
X110236Y66898D01*
X149606Y76740D02*
X147606Y80740D01*
X151606D01*
X149606Y76740D01*
X110236Y86583D02*
X108236Y90583D01*
X112236D01*
X110236Y86583D01*
X161894Y45500D02*
X162894Y47500D01*
X161894Y49500D01*
X163894Y48500D01*
X165894Y49500D01*
X164894Y47500D01*
X165894Y45500D01*
X163894Y46500D01*
X161894Y45500D01*
X171894D02*
X172894Y47500D01*
X171894Y49500D01*
X173894Y48500D01*
X175894Y49500D01*
X174894Y47500D01*
X175894Y45500D01*
X173894Y46500D01*
X171894Y45500D01*
X181894D02*
X182894Y47500D01*
X181894Y49500D01*
X183894Y48500D01*
X185894Y49500D01*
X184894Y47500D01*
X185894Y45500D01*
X183894Y46500D01*
X181894Y45500D01*
X191894D02*
X192894Y47500D01*
X191894Y49500D01*
X193894Y48500D01*
X195894Y49500D01*
X194894Y47500D01*
X195894Y45500D01*
X193894Y46500D01*
X191894Y45500D01*
X161894Y75500D02*
X162894Y77500D01*
X161894Y79500D01*
X163894Y78500D01*
X165894Y79500D01*
X164894Y77500D01*
X165894Y75500D01*
X163894Y76500D01*
X161894Y75500D01*
X171894D02*
X172894Y77500D01*
X171894Y79500D01*
X173894Y78500D01*
X175894Y79500D01*
X174894Y77500D01*
X175894Y75500D01*
X173894Y76500D01*
X171894Y75500D01*
X181894D02*
X182894Y77500D01*
X181894Y79500D01*
X183894Y78500D01*
X185894Y79500D01*
X184894Y77500D01*
X185894Y75500D01*
X183894Y76500D01*
X181894Y75500D01*
X191894D02*
X192894Y77500D01*
X191894Y79500D01*
X193894Y78500D01*
X195894Y79500D01*
X194894Y77500D01*
X195894Y75500D01*
X193894Y76500D01*
X191894Y75500D01*
X178394Y121000D02*
X179394Y123000D01*
X178394Y125000D01*
X180394Y124000D01*
X182394Y125000D01*
X181394Y123000D01*
X182394Y121000D01*
X180394Y122000D01*
X178394Y121000D01*
Y141000D02*
X179394Y143000D01*
X178394Y145000D01*
X180394Y144000D01*
X182394Y145000D01*
X181394Y143000D01*
X182394Y141000D01*
X180394Y142000D01*
X178394Y141000D01*
Y131000D02*
X179394Y133000D01*
X178394Y135000D01*
X180394Y134000D01*
X182394Y135000D01*
X181394Y133000D01*
X182394Y131000D01*
X180394Y132000D01*
X178394Y131000D01*
X384827Y150339D02*
Y149339D01*
X386827D01*
Y150339D01*
X387827D01*
Y152339D01*
X386827D01*
Y153339D01*
X384827D01*
Y152339D01*
X383827D01*
Y150339D01*
X384827D01*
Y115378D02*
Y114378D01*
X386827D01*
Y115378D01*
X387827D01*
Y117378D01*
X386827D01*
Y118378D01*
X384827D01*
Y117378D01*
X383827D01*
Y115378D01*
X384827D01*
X297579Y98658D02*
X295579Y102657D01*
X299579D01*
X297579Y98658D01*
X258209Y108500D02*
X256209Y112500D01*
X260209D01*
X258209Y108500D01*
X297579Y118342D02*
X295579Y122343D01*
X299579D01*
X297579Y118342D01*
X277894Y108500D02*
X278894Y109500D01*
X279894D01*
X278894Y110500D01*
X279894Y111500D01*
X278894D01*
X277894Y112500D01*
X276894Y111500D01*
X275894D01*
X276894Y110500D01*
X275894Y109500D01*
X276894D01*
X277894Y108500D01*
X338583Y159417D02*
X339583Y160417D01*
X340583D01*
X339583Y161417D01*
X340583Y162417D01*
X339583D01*
X338583Y163417D01*
X337583Y162417D01*
X336583D01*
X337583Y161417D01*
X336583Y160417D01*
X337583D01*
X338583Y159417D01*
X358268Y169260D02*
X356268Y173260D01*
X360268D01*
X358268Y169260D01*
X318898Y159417D02*
X316898Y163417D01*
X320898D01*
X318898Y159417D01*
X358268Y149575D02*
X356268Y153575D01*
X360268D01*
X358268Y149575D01*
X338894Y215000D02*
X339894Y216000D01*
X340894D01*
X339894Y217000D01*
X340894Y218000D01*
X339894D01*
X338894Y219000D01*
X337894Y218000D01*
X336894D01*
X337894Y217000D01*
X336894Y216000D01*
X337894D01*
X338894Y215000D01*
X358579Y224843D02*
X356579Y228842D01*
X360579D01*
X358579Y224843D01*
X319209Y215000D02*
X317209Y219000D01*
X321209D01*
X319209Y215000D01*
X358579Y205157D02*
X356579Y209157D01*
X360579D01*
X358579Y205157D01*
X293610Y195000D02*
Y199000D01*
X297610D01*
Y195000D01*
X293610D01*
X258177D02*
Y199000D01*
X262177D01*
Y195000D01*
X258177D01*
X165177Y205000D02*
Y209000D01*
X169177D01*
Y205000D01*
X165177D01*
X200610D02*
Y209000D01*
X204610D01*
Y205000D01*
X200610D01*
X89567Y232252D02*
X87567Y236252D01*
X91567D01*
X89567Y232252D01*
Y233052D02*
X88367Y235452D01*
X90767D01*
X89567Y233052D01*
X354331Y35000D02*
X352331Y39000D01*
X356331D01*
X354331Y35000D01*
Y35800D02*
X353131Y38200D01*
X355531D01*
X354331Y35800D01*
X110236Y33433D02*
X108236Y37433D01*
X112236D01*
X110236Y33433D01*
Y34233D02*
X109036Y36633D01*
X111436D01*
X110236Y34233D01*
X397638Y190913D02*
X395638Y194913D01*
X399638D01*
X397638Y190913D01*
Y191713D02*
X396438Y194113D01*
X398838D01*
X397638Y191713D01*
D83*
X169323Y248031D02*
G03*
X169323Y248031I-2000J0D01*
G01*
X212630D02*
G03*
X212630Y248031I-2000J0D01*
G01*
X104362Y183071D02*
G03*
X104362Y183071I-2000J0D01*
G01*
Y139764D02*
G03*
X104362Y139764I-2000J0D01*
G01*
X260740Y217000D02*
G03*
X260740Y217000I-2000J0D01*
G01*
X304047D02*
G03*
X304047Y217000I-2000J0D01*
G01*
X135858Y133858D02*
G03*
X135858Y133858I-2000J0D01*
G01*
X295701Y181890D02*
G03*
X295701Y181890I-2000J0D01*
G01*
X192551Y193307D02*
G03*
X192551Y193307I-2000J0D01*
G01*
X185858Y98819D02*
G03*
X185858Y98819I-2000J0D01*
G01*
X162236Y110630D02*
G03*
X162236Y110630I-2000J0D01*
G01*
X303969Y159843D02*
G03*
X303969Y159843I-2000J0D01*
G01*
X237394Y130000D02*
G03*
X237394Y130000I-2000J0D01*
G01*
X281528Y169291D02*
G03*
X281528Y169291I-2000J0D01*
G01*
X222472Y32283D02*
G03*
X222472Y32283I-2000J0D01*
G01*
D84*
X135058Y133858D02*
G03*
X135058Y133858I-1200J0D01*
G01*
X294901Y181890D02*
G03*
X294901Y181890I-1200J0D01*
G01*
X191751Y193307D02*
G03*
X191751Y193307I-1200J0D01*
G01*
X185058Y98819D02*
G03*
X185058Y98819I-1200J0D01*
G01*
X161436Y110630D02*
G03*
X161436Y110630I-1200J0D01*
G01*
X303169Y159843D02*
G03*
X303169Y159843I-1200J0D01*
G01*
X236594Y130000D02*
G03*
X236594Y130000I-1200J0D01*
G01*
X280728Y169291D02*
G03*
X280728Y169291I-1200J0D01*
G01*
X221672Y32283D02*
G03*
X221672Y32283I-1200J0D01*
G01*
%TF.MD5,153f444276c26e95fa242d52d7531a7a*%
M02*
