%TF.GenerationSoftware,Altium Limited,Altium Designer,25.1.2 (22)*%
G04 Layer_Color=16711935*
%FSLAX25Y25*%
%MOIN*%
%TF.SameCoordinates,C6B27E67-7A8A-4C38-9DB9-D7D7B609FA95*%
%TF.FilePolarity,Positive*%
%TF.FileFunction,Other,Top_3D_Body*%
%TF.Part,Single*%
G01*
G75*
%TA.AperFunction,NonConductor*%
%ADD40C,0.00787*%
%ADD42C,0.00500*%
%ADD43C,0.00000*%
%ADD45C,0.00394*%
%ADD63C,0.00600*%
D40*
X122126Y183071D02*
G03*
X122126Y183071I-394J0D01*
G01*
X110315Y102362D02*
G03*
X110315Y102362I-394J0D01*
G01*
X180787Y118039D02*
G03*
X180787Y118039I-394J0D01*
G01*
X298287Y86878D02*
G03*
X298287Y86878I-394J0D01*
G01*
X358976Y137795D02*
G03*
X358976Y137795I-394J0D01*
G01*
X359287Y193378D02*
G03*
X359287Y193378I-394J0D01*
G01*
X216531Y192000D02*
X242516D01*
X216531D02*
Y232000D01*
X242516D01*
Y192000D02*
Y232000D01*
X246398Y76748D02*
Y95252D01*
X204390Y76748D02*
X246398D01*
X204390D02*
Y95252D01*
X246398D01*
X271287Y58161D02*
X290303D01*
Y15839D02*
Y58161D01*
X271287Y15839D02*
X290303D01*
X271287D02*
Y58161D01*
X237598Y60236D02*
X244291D01*
X237598Y47638D02*
Y60236D01*
Y47638D02*
X244291D01*
Y60236D01*
X226772Y58465D02*
Y65158D01*
X214173D02*
X226772D01*
X214173Y58465D02*
Y65158D01*
Y58465D02*
X226772D01*
X194095Y28937D02*
Y35630D01*
Y28937D02*
X206693D01*
Y35630D01*
X194095D02*
X206693D01*
X391339Y123622D02*
Y144095D01*
X380315Y123622D02*
X391339D01*
X380315D02*
Y144095D01*
X391339D01*
X160236Y95866D02*
Y102559D01*
Y95866D02*
X172835D01*
Y102559D01*
X160236D02*
X172835D01*
X298622Y150787D02*
X305315D01*
X298622Y138189D02*
Y150787D01*
Y138189D02*
X305315D01*
Y150787D01*
X276181Y159843D02*
X282874D01*
X276181Y147244D02*
Y159843D01*
Y147244D02*
X282874D01*
Y159843D01*
X168504Y189567D02*
Y196260D01*
Y189567D02*
X181102D01*
Y196260D01*
X168504D02*
X181102D01*
D42*
X130690Y142444D02*
G03*
X130690Y176453I11043J17005D01*
G01*
X118879Y61736D02*
G03*
X118879Y95745I11043J17005D01*
G01*
X179577Y142055D02*
G03*
X179577Y123945I0J-9055D01*
G01*
X288936Y127505D02*
G03*
X288936Y93496I-11043J-17005D01*
G01*
X349625Y178422D02*
G03*
X349625Y144413I-11043J-17005D01*
G01*
X349936Y234004D02*
G03*
X349936Y199996I-11043J-17005D01*
G01*
X175591Y248031D02*
Y253150D01*
Y242913D02*
Y248031D01*
Y242913D02*
X202362D01*
Y248031D01*
Y253150D01*
X175591D02*
X202362D01*
X169685Y248031D02*
X175591D01*
X202362D02*
X208268D01*
X121457Y142520D02*
X130575D01*
X121457D02*
Y176378D01*
X130575D01*
X102362Y174803D02*
Y180709D01*
Y142126D02*
Y148031D01*
X97244D02*
Y174803D01*
X102362D01*
X107480D01*
Y148031D02*
Y174803D01*
X102362Y148031D02*
X107480D01*
X97244D02*
X102362D01*
X109646Y61811D02*
X118764D01*
X109646D02*
Y95669D01*
X118764D01*
X179577Y123945D02*
X184498D01*
X179577Y142055D02*
X184498D01*
Y123945D02*
Y142055D01*
X289051Y93571D02*
X298169D01*
Y127429D01*
X289051D02*
X298169D01*
X349740Y178347D02*
X358858D01*
Y144488D02*
Y178347D01*
X349740Y144488D02*
X358858D01*
X350051Y233929D02*
X359169D01*
Y200071D02*
Y233929D01*
X350051Y200071D02*
X359169D01*
X261102Y217000D02*
X267008D01*
X293779D02*
X299685D01*
X267008Y211882D02*
X293779D01*
X267008D02*
Y217000D01*
Y222118D01*
X293779D01*
Y217000D02*
Y222118D01*
Y211882D02*
Y217000D01*
D43*
X130548Y114371D02*
G03*
X114240Y114371I-8154J6144D01*
G01*
D45*
X267598Y168949D02*
G03*
X267598Y168949I-1969J0D01*
G01*
X197594Y73130D02*
G03*
X197594Y73130I-1969J0D01*
G01*
X191614Y172492D02*
X269173D01*
X191614Y146508D02*
X269173D01*
Y172492D01*
X191614Y146508D02*
Y172492D01*
X255669Y53098D02*
X265118D01*
X255669D02*
Y77902D01*
X265118Y53098D02*
Y77902D01*
X255669D02*
X265118D01*
X158618Y48327D02*
Y76673D01*
X199169Y48327D02*
Y76673D01*
X158618Y48327D02*
X199169D01*
X158618Y76673D02*
X199169D01*
X290295Y192276D02*
Y201724D01*
X265492Y192276D02*
X290295D01*
X265492Y201724D02*
X290295D01*
X265492Y192276D02*
Y201724D01*
X172492Y202276D02*
Y211724D01*
X197295D01*
X172492Y202276D02*
X197295D01*
Y211724D01*
D63*
X114294Y114300D02*
X130494D01*
%TF.MD5,c2a0ffdd7dd114fd6e0c62f492c7ab76*%
M02*
