%TF.GenerationSoftware,Altium Limited,Altium Designer,25.1.2 (22)*%
G04 Layer_Physical_Order=1*
G04 Layer_Color=255*
%FSLAX25Y25*%
%MOIN*%
%TF.SameCoordinates,C6B27E67-7A8A-4C38-9DB9-D7D7B609FA95*%
%TF.FilePolarity,Positive*%
%TF.FileFunction,Copper,L1,Top,Signal*%
%TF.Part,Single*%
G01*
G75*
%TA.AperFunction,SMDPad,CuDef*%
%ADD10R,0.05906X0.03937*%
%ADD11R,0.03937X0.05906*%
%TA.AperFunction,Conductor*%
%ADD12C,0.03937*%
%ADD13C,0.10000*%
%ADD14C,0.01500*%
%ADD15C,0.07874*%
%TA.AperFunction,ComponentPad*%
%ADD16C,0.11811*%
%ADD17C,0.05118*%
%ADD18C,0.04724*%
%ADD19R,0.04921X0.04921*%
%ADD20C,0.04921*%
%ADD21R,0.05906X0.05906*%
%ADD22C,0.05906*%
%ADD23R,0.08071X0.08071*%
%ADD24C,0.08071*%
%ADD25C,0.05315*%
%ADD26R,0.05315X0.05315*%
%ADD27R,0.07874X0.07874*%
%ADD28C,0.07874*%
%ADD29C,0.15748*%
%ADD30C,0.07677*%
%ADD31R,0.07677X0.07677*%
%ADD32C,0.05900*%
%ADD33R,0.05900X0.05900*%
%ADD34R,0.06102X0.06102*%
%ADD35C,0.06102*%
%ADD36R,0.05315X0.05315*%
%TA.AperFunction,ViaPad*%
%ADD37C,0.31496*%
%ADD38C,0.05000*%
D10*
X240945Y47638D02*
D03*
Y60236D02*
D03*
X301969Y138189D02*
D03*
Y150787D02*
D03*
X279528Y147244D02*
D03*
Y159843D02*
D03*
D11*
X214173Y61811D02*
D03*
X226772D02*
D03*
X206693Y32283D02*
D03*
X194095D02*
D03*
X172835Y99213D02*
D03*
X160236D02*
D03*
X181102Y192913D02*
D03*
X168504D02*
D03*
D12*
X210630Y248031D02*
X228189D01*
D13*
X124853Y242963D02*
X125000Y243110D01*
X104095Y242963D02*
X124853D01*
X95384Y234252D02*
X104095Y242963D01*
X89567Y234252D02*
X95384D01*
D14*
X161417Y159449D02*
X177600Y175632D01*
X185081D01*
X116142Y175197D02*
X122047Y169291D01*
X110236Y175197D02*
X116142D01*
X122047Y169291D02*
Y181102D01*
X167945Y227000D02*
X213894D01*
X122047Y181102D02*
X167945Y227000D01*
X226598Y83441D02*
Y86922D01*
X225394Y88126D02*
X226598Y86922D01*
Y83441D02*
X240945Y69095D01*
Y60236D02*
Y69095D01*
X102362Y183071D02*
X110236Y175197D01*
X149606Y78740D02*
X153543Y82677D01*
Y203150D01*
X167394Y217000D01*
X133858Y127402D02*
Y133858D01*
X122394Y125500D02*
X131956D01*
X133858Y127402D01*
X116626Y125500D02*
X122394D01*
X102362Y139764D02*
X116626Y125500D01*
X355179Y154663D02*
X358268Y151575D01*
X355179Y154663D02*
Y158431D01*
X331721Y181890D02*
X355179Y158431D01*
X293701Y181890D02*
X331721D01*
X181496Y193307D02*
X190551D01*
X181102Y192913D02*
X181496Y193307D01*
X167177Y205968D02*
Y207000D01*
Y205968D02*
X168504Y204641D01*
Y192913D02*
Y204641D01*
X167394Y217000D02*
X213894D01*
X173228Y98819D02*
X183858D01*
X172835Y99213D02*
X173228Y98819D01*
X160236Y99213D02*
Y110630D01*
X301969Y150787D02*
Y159843D01*
X234583Y138189D02*
X301969D01*
X173894Y77500D02*
X234583Y138189D01*
X235394Y88126D02*
Y130000D01*
X305815Y174500D02*
X318898Y161417D01*
X260394Y174500D02*
X305815D01*
X279528Y159843D02*
Y169291D01*
X278543Y147244D02*
X279528D01*
X275799Y144500D02*
X278543Y147244D01*
X260394Y144500D02*
X275799D01*
X163894Y47500D02*
X176002Y59608D01*
X212955D01*
X214173Y60827D01*
Y61811D01*
X239961Y60236D02*
X240945D01*
X238386Y61811D02*
X239961Y60236D01*
X226772Y61811D02*
X238386D01*
X240876Y47569D02*
X240945Y47638D01*
X193963Y47569D02*
X240876D01*
X206693Y32283D02*
X220472D01*
X193994Y32384D02*
X194095Y32283D01*
X193994Y32384D02*
Y47400D01*
X193894Y47500D02*
X193994Y47400D01*
X193894Y47500D02*
X193963Y47569D01*
X197449Y188000D02*
X203272D01*
X185081Y175632D02*
X197449Y188000D01*
X260394Y144500D02*
X261586D01*
X181910Y24894D02*
X182788Y24016D01*
X181910Y24894D02*
Y44419D01*
X236626Y24016D02*
X260394Y47783D01*
X182788Y24016D02*
X236626D01*
X181910Y44419D02*
X183894Y46403D01*
Y47500D01*
X202394Y188879D02*
X203272Y188000D01*
X236894D01*
X202394Y188879D02*
Y206784D01*
X202610Y207000D01*
X277610Y47783D02*
X278394Y47000D01*
X260394Y47783D02*
X277610D01*
X245153Y217000D02*
X258740D01*
X302047D02*
X319209D01*
X236894Y188000D02*
X250394Y174500D01*
X260177Y197000D02*
X260394Y196783D01*
Y174500D02*
Y196783D01*
X202610Y207000D02*
X213894D01*
X245153Y197000D02*
X260177D01*
D15*
X385827Y68496D02*
Y116378D01*
X354331Y37000D02*
X385827Y68496D01*
X351961Y37000D02*
X353146Y38185D01*
X278394Y37000D02*
X351961D01*
D16*
X125000Y243110D02*
D03*
X145866D02*
D03*
D17*
X238189Y248031D02*
D03*
X228189D02*
D03*
D18*
X167323D02*
D03*
X210630D02*
D03*
X102362Y183071D02*
D03*
Y139764D02*
D03*
X258740Y217000D02*
D03*
X302047D02*
D03*
D19*
X245153Y197000D02*
D03*
D20*
Y207000D02*
D03*
Y217000D02*
D03*
Y227000D02*
D03*
X213894D02*
D03*
Y217000D02*
D03*
Y207000D02*
D03*
Y197000D02*
D03*
D21*
X260394Y174500D02*
D03*
X193894Y77500D02*
D03*
D22*
X250394Y174500D02*
D03*
X240394D02*
D03*
X230394D02*
D03*
X220394D02*
D03*
X210394D02*
D03*
X200394D02*
D03*
X260394Y144500D02*
D03*
X250394D02*
D03*
X240394D02*
D03*
X230394D02*
D03*
X220394D02*
D03*
X210394D02*
D03*
X200394D02*
D03*
X163894Y47500D02*
D03*
X173894D02*
D03*
X183894D02*
D03*
X193894D02*
D03*
X163894Y77500D02*
D03*
X173894D02*
D03*
X183894D02*
D03*
D23*
X235394Y88126D02*
D03*
D24*
X225394D02*
D03*
X215394D02*
D03*
D25*
X260394Y47783D02*
D03*
X180394Y143000D02*
D03*
Y133000D02*
D03*
X295610Y197000D02*
D03*
X167177Y207000D02*
D03*
D26*
X260394Y83217D02*
D03*
X180394Y123000D02*
D03*
D27*
X278394Y47000D02*
D03*
D28*
Y37000D02*
D03*
Y27000D02*
D03*
D29*
X141732Y159449D02*
D03*
X129921Y78740D02*
D03*
X277894Y110500D02*
D03*
X338583Y161417D02*
D03*
X338894Y217000D02*
D03*
D30*
X122047Y149606D02*
D03*
X161417Y159449D02*
D03*
X110236Y68898D02*
D03*
X149606Y78740D02*
D03*
X258209Y110500D02*
D03*
X297579Y120343D02*
D03*
X358268Y171260D02*
D03*
X318898Y161417D02*
D03*
X358579Y226842D02*
D03*
X319209Y217000D02*
D03*
D31*
X122047Y169291D02*
D03*
X110236Y88583D02*
D03*
X297579Y100657D02*
D03*
X358268Y151575D02*
D03*
X358579Y207157D02*
D03*
D32*
X127394Y115500D02*
D03*
X122394Y125500D02*
D03*
D33*
X117394Y115500D02*
D03*
D34*
X385827Y151339D02*
D03*
D35*
Y116378D02*
D03*
D36*
X260177Y197000D02*
D03*
X202610Y207000D02*
D03*
D37*
X89567Y234252D02*
D03*
X354331Y37000D02*
D03*
X110236Y35433D02*
D03*
X397638Y192913D02*
D03*
D38*
X133858Y133858D02*
D03*
X293701Y181890D02*
D03*
X190551Y193307D02*
D03*
X183858Y98819D02*
D03*
X160236Y110630D02*
D03*
X301969Y159843D02*
D03*
X235394Y130000D02*
D03*
X279528Y169291D02*
D03*
X220472Y32283D02*
D03*
%TF.MD5,ddec83f36b1dafad5ee25b25095343b6*%
M02*
