M48
;Layer_Color=9474304
;FILE_FORMAT=2:4
INCH,TZ
;TYPE=PLATED
T01F00S00C0.0217
T02F00S00C0.0280
T03F00S00C0.0295
T04F00S00C0.0315
T05F00S00C0.0335
T06F00S00C0.0354
T07F00S00C0.0390
T08F00S00C0.0394
T09F00S00C0.0512
T10F00S00C0.0531
T11F00S00C0.0787
T12F00S00C0.1646
;TYPE=NON_PLATED
T13F00S00C0.1575
%
T01
X22819Y24803
X23819
T02
X13386Y13386
X16024Y11063
X18386Y9882
X23539Y13000
X22047Y3228
X19055Y19331
X27953Y16929
X29370Y18189
X30197Y15984
T03
X21389Y19700
Y20700
Y21700
Y22700
X24515
Y21700
Y20700
Y19700
T04
X10236Y13976
X16732Y24803
X21063
X25874Y21700
X30205
X10236Y18307
T05
X26039Y4778
Y8322
X26018Y19700
X29561
X20261Y20700
X16718
T06
X16389Y4750
X17389
X18389
X19389
Y7750
X18389
X17389
X16389
X18039Y12300
Y13300
Y14300
X20039Y14450
X21039
X22039
X23039
X24039
X25039
X26039
Y17450
X25039
X24039
X23039
X22039
X21039
X20039
T07
X11739Y11550
X12739
X12239Y12550
T08
X38583Y11638
Y15134
T09
X11024Y6890
Y8858
X14961Y7874
X12205Y14961
X25821Y11050
X29758Y10066
Y12034
X27839Y4700
Y3700
Y2700
X35827Y15157
Y17126
X35858Y20716
Y22684
X31921Y21700
X31890Y16142
X16142Y15945
X12205Y16929
T10
X21539Y8813
X22539
X23539
T11
X12500Y24311
X14587
T12
X11024Y3543
X35433Y3700
X39764Y19291
X8957Y23425
T13
X12992Y7874
X27789Y11050
X33858Y16142
X33889Y21700
X14173Y15945
M30
